<svg width="546" height="185" viewBox="0 0 546 185" fill="none" xmlns="http://www.w3.org/2000/svg">
<path d="M165.556 182H157.492V137.2H165.556V154.864H166.708C167.561 153.115 168.798 151.771 170.42 150.832C172.041 149.851 174.11 149.36 176.628 149.36C178.505 149.36 180.276 149.723 181.94 150.448C183.646 151.173 185.118 152.24 186.356 153.648C187.636 155.013 188.638 156.699 189.364 158.704C190.132 160.709 190.516 162.992 190.516 165.552V166.704C190.516 169.307 190.153 171.611 189.428 173.616C188.702 175.621 187.721 177.328 186.484 178.736C185.246 180.101 183.774 181.147 182.068 181.872C180.404 182.555 178.59 182.896 176.628 182.896C175.177 182.896 173.918 182.747 172.852 182.448C171.785 182.149 170.846 181.744 170.036 181.232C169.268 180.72 168.606 180.144 168.052 179.504C167.54 178.821 167.092 178.117 166.708 177.392H165.556V182ZM174.004 175.216C176.521 175.216 178.548 174.448 180.084 172.912C181.662 171.333 182.452 169.2 182.452 166.512V165.744C182.452 163.056 181.662 160.944 180.084 159.408C178.548 157.829 176.521 157.04 174.004 157.04C171.486 157.04 169.438 157.851 167.86 159.472C166.324 161.051 165.556 163.141 165.556 165.744V166.512C165.556 169.115 166.324 171.227 167.86 172.848C169.438 174.427 171.486 175.216 174.004 175.216ZM218.567 177.392C217.714 179.397 216.519 180.827 214.983 181.68C213.447 182.491 211.655 182.896 209.607 182.896C207.687 182.896 205.874 182.533 204.167 181.808C202.503 181.083 201.031 180.016 199.751 178.608C198.471 177.2 197.447 175.493 196.679 173.488C195.954 171.483 195.591 169.2 195.591 166.64V165.616C195.591 163.099 195.954 160.837 196.679 158.832C197.405 156.827 198.386 155.12 199.623 153.712C200.861 152.304 202.29 151.237 203.911 150.512C205.575 149.744 207.346 149.36 209.223 149.36C211.485 149.36 213.298 149.744 214.663 150.512C216.071 151.28 217.181 152.475 217.991 154.096H219.143V150.256H227.207V172.4C227.207 173.68 227.783 174.32 228.935 174.32H230.151V182H224.647C223.197 182 222.002 181.573 221.063 180.72C220.167 179.867 219.719 178.757 219.719 177.392H218.567ZM211.399 175.216C213.746 175.216 215.623 174.448 217.031 172.912C218.439 171.333 219.143 169.2 219.143 166.512V165.744C219.143 163.056 218.439 160.944 217.031 159.408C215.623 157.829 213.746 157.04 211.399 157.04C209.053 157.04 207.175 157.829 205.767 159.408C204.359 160.944 203.655 163.056 203.655 165.744V166.512C203.655 169.2 204.359 171.333 205.767 172.912C207.175 174.448 209.053 175.216 211.399 175.216ZM257.755 177.392C256.901 179.397 255.707 180.827 254.171 181.68C252.635 182.491 250.843 182.896 248.795 182.896C246.875 182.896 245.061 182.533 243.355 181.808C241.691 181.083 240.219 180.016 238.939 178.608C237.659 177.2 236.635 175.493 235.867 173.488C235.141 171.483 234.779 169.2 234.779 166.64V165.616C234.779 163.099 235.141 160.837 235.867 158.832C236.592 156.827 237.573 155.12 238.811 153.712C240.048 152.304 241.477 151.237 243.099 150.512C244.763 149.744 246.533 149.36 248.411 149.36C250.672 149.36 252.485 149.744 253.851 150.512C255.259 151.28 256.368 152.475 257.179 154.096H258.331V150.256H266.395V172.4C266.395 173.68 266.971 174.32 268.123 174.32H269.339V182H263.835C262.384 182 261.189 181.573 260.251 180.72C259.355 179.867 258.907 178.757 258.907 177.392H257.755ZM250.587 175.216C252.933 175.216 254.811 174.448 256.219 172.912C257.627 171.333 258.331 169.2 258.331 166.512V165.744C258.331 163.056 257.627 160.944 256.219 159.408C254.811 157.829 252.933 157.04 250.587 157.04C248.24 157.04 246.363 157.829 244.955 159.408C243.547 160.944 242.843 163.056 242.843 165.744V166.512C242.843 169.2 243.547 171.333 244.955 172.912C246.363 174.448 248.24 175.216 250.587 175.216ZM276.206 174.32H287.342V144.88H276.59V137.2H295.406V174.32H305.774V182H276.206V174.32ZM316.162 174.32H326.914V157.936H316.93V150.256H334.978V174.32H344.194V182H316.162V174.32ZM336.962 140.848C336.962 141.701 336.791 142.512 336.45 143.28C336.151 144.005 335.724 144.645 335.17 145.2C334.615 145.712 333.954 146.139 333.186 146.48C332.46 146.779 331.692 146.928 330.882 146.928C330.028 146.928 329.239 146.779 328.514 146.48C327.788 146.139 327.148 145.712 326.594 145.2C326.039 144.645 325.591 144.005 325.25 143.28C324.951 142.512 324.802 141.701 324.802 140.848C324.802 139.995 324.951 139.205 325.25 138.48C325.591 137.712 326.039 137.072 326.594 136.56C327.148 136.005 327.788 135.579 328.514 135.28C329.239 134.939 330.028 134.768 330.882 134.768C331.692 134.768 332.46 134.939 333.186 135.28C333.954 135.579 334.615 136.005 335.17 136.56C335.724 137.072 336.151 137.712 336.45 138.48C336.791 139.205 336.962 139.995 336.962 140.848ZM364.885 159.216C364.885 160.24 365.419 160.987 366.485 161.456C367.552 161.883 369.493 162.245 372.309 162.544C375.552 162.885 378.197 163.867 380.245 165.488C382.293 167.067 383.317 169.285 383.317 172.144V172.528C383.317 175.685 382.165 178.203 379.861 180.08C377.557 181.957 374.315 182.896 370.133 182.896C367.659 182.896 365.547 182.576 363.797 181.936C362.048 181.296 360.597 180.507 359.445 179.568C358.293 178.587 357.397 177.52 356.757 176.368C356.16 175.173 355.755 174.021 355.541 172.912L362.965 170.48C363.307 171.845 364.011 173.04 365.077 174.064C366.187 175.088 367.872 175.6 370.133 175.6C372.139 175.6 373.504 175.301 374.229 174.704C374.997 174.064 375.381 173.381 375.381 172.656C375.381 172.229 375.275 171.845 375.061 171.504C374.891 171.12 374.549 170.779 374.037 170.48C373.525 170.139 372.821 169.861 371.925 169.648C371.072 169.435 369.984 169.264 368.661 169.136C365.077 168.837 362.219 167.92 360.085 166.384C357.995 164.805 356.949 162.501 356.949 159.472V159.088C356.949 157.509 357.291 156.123 357.973 154.928C358.656 153.733 359.552 152.731 360.661 151.92C361.771 151.067 363.051 150.427 364.501 150C365.952 149.573 367.445 149.36 368.981 149.36C370.987 149.36 372.715 149.616 374.165 150.128C375.659 150.597 376.917 151.237 377.941 152.048C378.965 152.816 379.797 153.691 380.437 154.672C381.077 155.611 381.568 156.528 381.909 157.424L374.613 160.368C374.229 159.216 373.568 158.32 372.629 157.68C371.691 156.997 370.475 156.656 368.981 156.656C367.616 156.656 366.592 156.912 365.909 157.424C365.227 157.893 364.885 158.491 364.885 159.216ZM402.153 182H394.089V137.2H402.153V155.376H403.305C404.115 153.456 405.31 151.984 406.889 150.96C408.467 149.893 410.409 149.36 412.713 149.36C414.291 149.36 415.742 149.616 417.065 150.128C418.387 150.64 419.539 151.408 420.521 152.432C421.502 153.456 422.27 154.779 422.825 156.4C423.379 157.979 423.657 159.856 423.657 162.032V182H415.593V163.952C415.593 161.691 415.038 159.92 413.929 158.64C412.862 157.317 411.305 156.656 409.257 156.656C406.867 156.656 405.075 157.467 403.881 159.088C402.729 160.667 402.153 162.8 402.153 165.488V182Z" fill="white"/>
<path d="M165.556 182V183H166.556V182H165.556ZM157.492 182H156.492V183H157.492V182ZM157.492 137.2V136.2H156.492V137.2H157.492ZM165.556 137.2H166.556V136.2H165.556V137.2ZM165.556 154.864H164.556V155.864H165.556V154.864ZM166.708 154.864V155.864H167.333L167.607 155.302L166.708 154.864ZM170.42 150.832L170.921 151.697L170.929 151.693L170.938 151.687L170.42 150.832ZM181.94 150.448L181.54 151.365L181.549 151.368L181.94 150.448ZM186.356 153.648L185.605 154.308L185.615 154.32L185.626 154.332L186.356 153.648ZM189.364 158.704L188.423 159.044L188.427 159.053L188.43 159.062L189.364 158.704ZM189.428 173.616L190.368 173.956L190.368 173.956L189.428 173.616ZM186.484 178.736L187.225 179.408L187.23 179.402L187.235 179.396L186.484 178.736ZM182.068 181.872L182.447 182.797L182.459 182.792L182.068 181.872ZM170.036 181.232L169.481 182.064L169.491 182.071L169.502 182.077L170.036 181.232ZM168.052 179.504L167.252 180.104L167.273 180.132L167.296 180.159L168.052 179.504ZM166.708 177.392L167.592 176.924L167.31 176.392H166.708V177.392ZM165.556 177.392V176.392H164.556V177.392H165.556ZM180.084 172.912L180.791 173.619L180.791 173.619L180.084 172.912ZM180.084 159.408L179.367 160.105L179.377 160.115L179.386 160.125L180.084 159.408ZM167.86 159.472L167.143 158.774L167.143 158.775L167.86 159.472ZM167.86 172.848L167.134 173.536L167.143 173.546L167.153 173.555L167.86 172.848ZM165.556 181H157.492V183H165.556V181ZM158.492 182V137.2H156.492V182H158.492ZM157.492 138.2H165.556V136.2H157.492V138.2ZM164.556 137.2V154.864H166.556V137.2H164.556ZM165.556 155.864H166.708V153.864H165.556V155.864ZM167.607 155.302C168.376 153.724 169.478 152.532 170.921 151.697L169.919 149.967C168.118 151.009 166.746 152.505 165.809 154.426L167.607 155.302ZM170.938 151.687C172.359 150.827 174.235 150.36 176.628 150.36V148.36C173.986 148.36 171.723 148.874 169.902 149.976L170.938 151.687ZM176.628 150.36C178.372 150.36 180.007 150.696 181.54 151.365L182.339 149.531C180.545 148.749 178.638 148.36 176.628 148.36V150.36ZM181.549 151.368C183.116 152.034 184.465 153.011 185.605 154.308L187.107 152.988C185.772 151.469 184.177 150.312 182.331 149.528L181.549 151.368ZM185.626 154.332C186.801 155.585 187.738 157.149 188.423 159.044L190.304 158.364C189.539 156.249 188.47 154.441 187.085 152.964L185.626 154.332ZM188.43 159.062C189.147 160.933 189.516 163.091 189.516 165.552H191.516C191.516 162.893 191.117 160.485 190.298 158.346L188.43 159.062ZM189.516 165.552V166.704H191.516V165.552H189.516ZM189.516 166.704C189.516 169.215 189.166 171.401 188.487 173.276L190.368 173.956C191.141 171.821 191.516 169.398 191.516 166.704H189.516ZM188.487 173.276C187.799 175.18 186.877 176.774 185.733 178.076L187.235 179.396C188.565 177.882 189.606 176.063 190.368 173.956L188.487 173.276ZM185.743 178.064C184.603 179.322 183.251 180.283 181.677 180.952L182.459 182.792C184.298 182.011 185.89 180.881 187.225 179.408L185.743 178.064ZM181.688 180.947C180.155 181.576 178.472 181.896 176.628 181.896V183.896C178.709 183.896 180.652 183.534 182.447 182.797L181.688 180.947ZM176.628 181.896C175.242 181.896 174.078 181.753 173.121 181.485L172.582 183.411C173.759 183.74 175.112 183.896 176.628 183.896V181.896ZM173.121 181.485C172.134 181.209 171.287 180.839 170.57 180.387L169.502 182.077C170.406 182.649 171.436 183.09 172.582 183.411L173.121 181.485ZM170.59 180.4C169.89 179.933 169.298 179.415 168.807 178.849L167.296 180.159C167.914 180.873 168.645 181.507 169.481 182.064L170.59 180.4ZM168.852 178.904C168.37 178.261 167.95 177.601 167.592 176.924L165.824 177.86C166.233 178.633 166.71 179.381 167.252 180.104L168.852 178.904ZM166.708 176.392H165.556V178.392H166.708V176.392ZM164.556 177.392V182H166.556V177.392H164.556ZM174.004 176.216C176.741 176.216 179.037 175.373 180.791 173.619L179.377 172.205C178.058 173.523 176.301 174.216 174.004 174.216V176.216ZM180.791 173.619C182.594 171.816 183.452 169.407 183.452 166.512H181.452C181.452 168.993 180.73 170.851 179.377 172.205L180.791 173.619ZM183.452 166.512V165.744H181.452V166.512H183.452ZM183.452 165.744C183.452 162.85 182.595 160.456 180.781 158.691L179.386 160.125C180.73 161.432 181.452 163.262 181.452 165.744H183.452ZM180.8 158.711C179.049 156.91 176.749 156.04 174.004 156.04V158.04C176.293 158.04 178.047 158.748 179.367 160.105L180.8 158.711ZM174.004 156.04C171.25 156.04 168.932 156.937 167.143 158.774L168.576 160.17C169.945 158.764 171.723 158.04 174.004 158.04V156.04ZM167.143 158.775C165.393 160.573 164.556 162.932 164.556 165.744H166.556C166.556 163.351 167.255 161.528 168.576 160.169L167.143 158.775ZM164.556 165.744V166.512H166.556V165.744H164.556ZM164.556 166.512C164.556 169.325 165.393 171.698 167.134 173.536L168.586 172.16C167.255 170.755 166.556 168.904 166.556 166.512H164.556ZM167.153 173.555C168.943 175.346 171.258 176.216 174.004 176.216V174.216C171.715 174.216 169.933 173.507 168.567 172.141L167.153 173.555ZM218.567 177.392V176.392H217.906L217.647 177L218.567 177.392ZM214.983 181.68L215.45 182.564L215.46 182.559L215.469 182.554L214.983 181.68ZM204.167 181.808L203.768 182.725L203.776 182.728L204.167 181.808ZM199.751 178.608L200.491 177.935L200.491 177.935L199.751 178.608ZM196.679 173.488L195.739 173.828L195.742 173.837L195.745 173.846L196.679 173.488ZM196.679 158.832L197.62 159.172L197.62 159.172L196.679 158.832ZM199.623 153.712L198.872 153.052L198.872 153.052L199.623 153.712ZM203.911 150.512L204.32 151.425L204.33 151.42L203.911 150.512ZM214.663 150.512L214.173 151.384L214.184 151.39L214.663 150.512ZM217.991 154.096L217.097 154.543L217.373 155.096H217.991V154.096ZM219.143 154.096V155.096H220.143V154.096H219.143ZM219.143 150.256V149.256H218.143V150.256H219.143ZM227.207 150.256H228.207V149.256H227.207V150.256ZM230.151 174.32H231.151V173.32H230.151V174.32ZM230.151 182V183H231.151V182H230.151ZM221.063 180.72L220.374 181.444L220.382 181.452L220.391 181.46L221.063 180.72ZM219.719 177.392H220.719V176.392H219.719V177.392ZM217.031 172.912L217.768 173.588L217.778 173.578L217.031 172.912ZM217.031 159.408L216.285 160.074L216.294 160.084L217.031 159.408ZM205.767 159.408L206.504 160.084L206.514 160.074L205.767 159.408ZM205.767 172.912L205.021 173.578L205.03 173.588L205.767 172.912ZM217.647 177C216.859 178.851 215.796 180.084 214.498 180.806L215.469 182.554C217.242 181.569 218.568 179.943 219.487 177.784L217.647 177ZM214.516 180.796C213.148 181.518 211.522 181.896 209.607 181.896V183.896C211.789 183.896 213.746 183.463 215.45 182.564L214.516 180.796ZM209.607 181.896C207.817 181.896 206.137 181.559 204.558 180.888L203.776 182.728C205.611 183.508 207.558 183.896 209.607 183.896V181.896ZM204.567 180.891C203.038 180.225 201.681 179.244 200.491 177.935L199.011 179.281C200.382 180.788 201.968 181.94 203.768 182.725L204.567 180.891ZM200.491 177.935C199.305 176.63 198.342 175.034 197.613 173.13L195.745 173.846C196.552 175.952 197.638 177.77 199.011 179.281L200.491 177.935ZM197.62 173.148C196.941 171.271 196.591 169.107 196.591 166.64H194.591C194.591 169.293 194.967 171.694 195.739 173.828L197.62 173.148ZM196.591 166.64V165.616H194.591V166.64H196.591ZM196.591 165.616C196.591 163.194 196.94 161.051 197.62 159.172L195.739 158.492C194.968 160.624 194.591 163.003 194.591 165.616H196.591ZM197.62 159.172C198.308 157.268 199.23 155.674 200.374 154.372L198.872 153.052C197.542 154.566 196.501 156.385 195.739 158.492L197.62 159.172ZM200.374 154.372C201.522 153.066 202.837 152.088 204.32 151.425L203.503 149.599C201.743 150.386 200.199 151.542 198.872 153.052L200.374 154.372ZM204.33 151.42C205.86 150.714 207.487 150.36 209.223 150.36V148.36C207.205 148.36 205.291 148.774 203.492 149.604L204.33 151.42ZM209.223 150.36C211.384 150.36 213.009 150.729 214.173 151.384L215.154 149.64C213.587 148.759 211.585 148.36 209.223 148.36V150.36ZM214.184 151.39C215.39 152.048 216.365 153.08 217.097 154.543L218.886 153.649C217.996 151.87 216.752 150.512 215.142 149.634L214.184 151.39ZM217.991 155.096H219.143V153.096H217.991V155.096ZM220.143 154.096V150.256H218.143V154.096H220.143ZM219.143 151.256H227.207V149.256H219.143V151.256ZM226.207 150.256V172.4H228.207V150.256H226.207ZM226.207 172.4C226.207 173.17 226.378 173.934 226.896 174.509C227.432 175.104 228.176 175.32 228.935 175.32V173.32C228.542 173.32 228.423 173.216 228.383 173.171C228.324 173.106 228.207 172.91 228.207 172.4H226.207ZM228.935 175.32H230.151V173.32H228.935V175.32ZM229.151 174.32V182H231.151V174.32H229.151ZM230.151 181H224.647V183H230.151V181ZM224.647 181C223.407 181 222.464 180.642 221.736 179.98L220.391 181.46C221.54 182.505 222.986 183 224.647 183V181ZM221.753 179.996C221.077 179.352 220.719 178.515 220.719 177.392H218.719C218.719 179 219.258 180.381 220.374 181.444L221.753 179.996ZM219.719 176.392H218.567V178.392H219.719V176.392ZM211.399 176.216C213.987 176.216 216.146 175.358 217.768 173.588L216.294 172.236C215.1 173.538 213.505 174.216 211.399 174.216V176.216ZM217.778 173.578C219.389 171.77 220.143 169.377 220.143 166.512H218.143C218.143 169.023 217.489 170.896 216.285 172.246L217.778 173.578ZM220.143 166.512V165.744H218.143V166.512H220.143ZM220.143 165.744C220.143 162.881 219.39 160.501 217.768 158.732L216.294 160.084C217.488 161.387 218.143 163.231 218.143 165.744H220.143ZM217.778 158.742C216.158 156.926 213.996 156.04 211.399 156.04V158.04C213.496 158.04 215.089 158.732 216.285 160.074L217.778 158.742ZM211.399 156.04C208.802 156.04 206.641 156.926 205.021 158.742L206.514 160.074C207.71 158.732 209.303 158.04 211.399 158.04V156.04ZM205.03 158.732C203.408 160.501 202.655 162.881 202.655 165.744H204.655C204.655 163.231 205.31 161.387 206.504 160.084L205.03 158.732ZM202.655 165.744V166.512H204.655V165.744H202.655ZM202.655 166.512C202.655 169.377 203.409 171.77 205.021 173.578L206.514 172.246C205.309 170.896 204.655 169.023 204.655 166.512H202.655ZM205.03 173.588C206.652 175.358 208.811 176.216 211.399 176.216V174.216C209.294 174.216 207.698 173.538 206.504 172.236L205.03 173.588ZM257.755 177.392V176.392H257.094L256.835 177L257.755 177.392ZM254.171 181.68L254.638 182.564L254.647 182.559L254.656 182.554L254.171 181.68ZM243.355 181.808L242.955 182.725L242.964 182.728L243.355 181.808ZM238.939 178.608L239.679 177.935L239.679 177.935L238.939 178.608ZM235.867 173.488L234.926 173.828L234.93 173.837L234.933 173.846L235.867 173.488ZM235.867 158.832L236.807 159.172L236.807 159.172L235.867 158.832ZM238.811 153.712L238.06 153.052L238.06 153.052L238.811 153.712ZM243.099 150.512L243.507 151.425L243.518 151.42L243.099 150.512ZM253.851 150.512L253.36 151.384L253.372 151.39L253.851 150.512ZM257.179 154.096L256.284 154.543L256.561 155.096H257.179V154.096ZM258.331 154.096V155.096H259.331V154.096H258.331ZM258.331 150.256V149.256H257.331V150.256H258.331ZM266.395 150.256H267.395V149.256H266.395V150.256ZM269.339 174.32H270.339V173.32H269.339V174.32ZM269.339 182V183H270.339V182H269.339ZM260.251 180.72L259.561 181.444L259.569 181.452L259.578 181.46L260.251 180.72ZM258.907 177.392H259.907V176.392H258.907V177.392ZM256.219 172.912L256.956 173.588L256.965 173.578L256.219 172.912ZM256.219 159.408L255.472 160.074L255.482 160.084L256.219 159.408ZM244.955 159.408L245.692 160.084L245.701 160.074L244.955 159.408ZM244.955 172.912L244.208 173.578L244.218 173.588L244.955 172.912ZM256.835 177C256.047 178.851 254.984 180.084 253.685 180.806L254.656 182.554C256.43 181.569 257.756 179.943 258.675 177.784L256.835 177ZM253.704 180.796C252.336 181.518 250.709 181.896 248.795 181.896V183.896C250.976 183.896 252.934 183.463 254.638 182.564L253.704 180.796ZM248.795 181.896C247.004 181.896 245.324 181.559 243.746 180.888L242.964 182.728C244.798 183.508 246.745 183.896 248.795 183.896V181.896ZM243.754 180.891C242.226 180.225 240.868 179.244 239.679 177.935L238.199 179.281C239.569 180.788 241.156 181.94 242.955 182.725L243.754 180.891ZM239.679 177.935C238.492 176.63 237.53 175.034 236.801 173.13L234.933 173.846C235.74 175.952 236.825 177.77 238.199 179.281L239.679 177.935ZM236.807 173.148C236.128 171.271 235.779 169.107 235.779 166.64H233.779C233.779 169.293 234.155 171.694 234.926 173.828L236.807 173.148ZM235.779 166.64V165.616H233.779V166.64H235.779ZM235.779 165.616C235.779 163.194 236.128 161.051 236.807 159.172L234.926 158.492C234.155 160.624 233.779 163.003 233.779 165.616H235.779ZM236.807 159.172C237.496 157.268 238.418 155.674 239.562 154.372L238.06 153.052C236.729 154.566 235.688 156.385 234.926 158.492L236.807 159.172ZM239.562 154.372C240.71 153.066 242.024 152.088 243.507 151.425L242.69 149.599C240.931 150.386 239.386 151.542 238.06 153.052L239.562 154.372ZM243.518 151.42C245.047 150.714 246.674 150.36 248.411 150.36V148.36C246.392 148.36 244.478 148.774 242.68 149.604L243.518 151.42ZM248.411 150.36C250.572 150.36 252.197 150.729 253.36 151.384L254.341 149.64C252.774 148.759 250.772 148.36 248.411 148.36V150.36ZM253.372 151.39C254.578 152.048 255.553 153.08 256.284 154.543L258.073 153.649C257.184 151.87 255.94 150.512 254.33 149.634L253.372 151.39ZM257.179 155.096H258.331V153.096H257.179V155.096ZM259.331 154.096V150.256H257.331V154.096H259.331ZM258.331 151.256H266.395V149.256H258.331V151.256ZM265.395 150.256V172.4H267.395V150.256H265.395ZM265.395 172.4C265.395 173.17 265.566 173.934 266.083 174.509C266.619 175.104 267.364 175.32 268.123 175.32V173.32C267.73 173.32 267.61 173.216 267.57 173.171C267.512 173.106 267.395 172.91 267.395 172.4H265.395ZM268.123 175.32H269.339V173.32H268.123V175.32ZM268.339 174.32V182H270.339V174.32H268.339ZM269.339 181H263.835V183H269.339V181ZM263.835 181C262.595 181 261.652 180.642 260.923 179.98L259.578 181.46C260.727 182.505 262.174 183 263.835 183V181ZM260.94 179.996C260.264 179.352 259.907 178.515 259.907 177.392H257.907C257.907 179 258.445 180.381 259.561 181.444L260.94 179.996ZM258.907 176.392H257.755V178.392H258.907V176.392ZM250.587 176.216C253.175 176.216 255.334 175.358 256.956 173.588L255.482 172.236C254.288 173.538 252.692 174.216 250.587 174.216V176.216ZM256.965 173.578C258.577 171.77 259.331 169.377 259.331 166.512H257.331C257.331 169.023 256.677 170.896 255.472 172.246L256.965 173.578ZM259.331 166.512V165.744H257.331V166.512H259.331ZM259.331 165.744C259.331 162.881 258.578 160.501 256.956 158.732L255.482 160.084C256.676 161.387 257.331 163.231 257.331 165.744H259.331ZM256.965 158.742C255.345 156.926 253.184 156.04 250.587 156.04V158.04C252.683 158.04 254.276 158.732 255.472 160.074L256.965 158.742ZM250.587 156.04C247.99 156.04 245.828 156.926 244.208 158.742L245.701 160.074C246.897 158.732 248.49 158.04 250.587 158.04V156.04ZM244.218 158.732C242.596 160.501 241.843 162.881 241.843 165.744H243.843C243.843 163.231 244.498 161.387 245.692 160.084L244.218 158.732ZM241.843 165.744V166.512H243.843V165.744H241.843ZM241.843 166.512C241.843 169.377 242.597 171.77 244.208 173.578L245.701 172.246C244.497 170.896 243.843 169.023 243.843 166.512H241.843ZM244.218 173.588C245.84 175.358 247.999 176.216 250.587 176.216V174.216C248.481 174.216 246.886 173.538 245.692 172.236L244.218 173.588ZM276.206 174.32V173.32H275.206V174.32H276.206ZM287.342 174.32V175.32H288.342V174.32H287.342ZM287.342 144.88H288.342V143.88H287.342V144.88ZM276.59 144.88H275.59V145.88H276.59V144.88ZM276.59 137.2V136.2H275.59V137.2H276.59ZM295.406 137.2H296.406V136.2H295.406V137.2ZM295.406 174.32H294.406V175.32H295.406V174.32ZM305.774 174.32H306.774V173.32H305.774V174.32ZM305.774 182V183H306.774V182H305.774ZM276.206 182H275.206V183H276.206V182ZM276.206 175.32H287.342V173.32H276.206V175.32ZM288.342 174.32V144.88H286.342V174.32H288.342ZM287.342 143.88H276.59V145.88H287.342V143.88ZM277.59 144.88V137.2H275.59V144.88H277.59ZM276.59 138.2H295.406V136.2H276.59V138.2ZM294.406 137.2V174.32H296.406V137.2H294.406ZM295.406 175.32H305.774V173.32H295.406V175.32ZM304.774 174.32V182H306.774V174.32H304.774ZM305.774 181H276.206V183H305.774V181ZM277.206 182V174.32H275.206V182H277.206ZM316.162 174.32V173.32H315.162V174.32H316.162ZM326.914 174.32V175.32H327.914V174.32H326.914ZM326.914 157.936H327.914V156.936H326.914V157.936ZM316.93 157.936H315.93V158.936H316.93V157.936ZM316.93 150.256V149.256H315.93V150.256H316.93ZM334.978 150.256H335.978V149.256H334.978V150.256ZM334.978 174.32H333.978V175.32H334.978V174.32ZM344.194 174.32H345.194V173.32H344.194V174.32ZM344.194 182V183H345.194V182H344.194ZM316.162 182H315.162V183H316.162V182ZM336.45 143.28L335.536 142.874L335.53 142.886L335.525 142.899L336.45 143.28ZM335.17 145.2L335.848 145.935L335.863 145.921L335.877 145.907L335.17 145.2ZM333.186 146.48L333.566 147.405L333.579 147.399L333.592 147.394L333.186 146.48ZM328.514 146.48L328.088 147.385L328.11 147.395L328.133 147.405L328.514 146.48ZM326.594 145.2L325.887 145.907L325.901 145.921L325.915 145.935L326.594 145.2ZM325.25 143.28L324.318 143.642L324.33 143.675L324.345 143.706L325.25 143.28ZM325.25 138.48L324.336 138.074L324.33 138.086L324.325 138.099L325.25 138.48ZM326.594 136.56L327.272 137.295L327.287 137.281L327.301 137.267L326.594 136.56ZM328.514 135.28L328.894 136.205L328.917 136.195L328.94 136.185L328.514 135.28ZM333.186 135.28L332.76 136.185L332.791 136.2L332.823 136.212L333.186 135.28ZM335.17 136.56L334.463 137.267L334.477 137.281L334.491 137.295L335.17 136.56ZM336.45 138.48L335.518 138.842L335.53 138.875L335.545 138.906L336.45 138.48ZM316.162 175.32H326.914V173.32H316.162V175.32ZM327.914 174.32V157.936H325.914V174.32H327.914ZM326.914 156.936H316.93V158.936H326.914V156.936ZM317.93 157.936V150.256H315.93V157.936H317.93ZM316.93 151.256H334.978V149.256H316.93V151.256ZM333.978 150.256V174.32H335.978V150.256H333.978ZM334.978 175.32H344.194V173.32H334.978V175.32ZM343.194 174.32V182H345.194V174.32H343.194ZM344.194 181H316.162V183H344.194V181ZM317.162 182V174.32H315.162V182H317.162ZM335.962 140.848C335.962 141.564 335.82 142.236 335.536 142.874L337.364 143.686C337.763 142.788 337.962 141.839 337.962 140.848H335.962ZM335.525 142.899C335.277 143.503 334.924 144.032 334.463 144.493L335.877 145.907C336.525 145.259 337.025 144.508 337.374 143.661L335.525 142.899ZM334.491 144.465C334.026 144.895 333.459 145.264 332.78 145.566L333.592 147.394C334.449 147.013 335.204 146.529 335.848 145.935L334.491 144.465ZM332.805 145.555C332.205 145.803 331.566 145.928 330.882 145.928V147.928C331.819 147.928 332.716 147.755 333.566 147.405L332.805 145.555ZM330.882 145.928C330.147 145.928 329.489 145.8 328.894 145.555L328.133 147.405C328.989 147.757 329.909 147.928 330.882 147.928V145.928ZM328.94 145.575C328.301 145.275 327.747 144.904 327.272 144.465L325.915 145.935C326.55 146.52 327.276 147.003 328.088 147.385L328.94 145.575ZM327.301 144.493C326.83 144.022 326.448 143.477 326.155 142.854L324.345 143.706C324.734 144.533 325.249 145.269 325.887 145.907L327.301 144.493ZM326.182 142.918C325.93 142.269 325.802 141.582 325.802 140.848H323.802C323.802 141.821 323.973 142.755 324.318 143.642L326.182 142.918ZM325.802 140.848C325.802 140.114 325.93 139.455 326.174 138.861L324.325 138.099C323.972 138.956 323.802 139.876 323.802 140.848H325.802ZM326.164 138.886C326.456 138.228 326.828 137.704 327.272 137.295L325.915 135.825C325.25 136.44 324.726 137.196 324.336 138.074L326.164 138.886ZM327.301 137.267C327.762 136.806 328.291 136.453 328.894 136.205L328.133 134.355C327.286 134.704 326.535 135.205 325.887 135.853L327.301 137.267ZM328.94 136.185C329.523 135.91 330.166 135.768 330.882 135.768V133.768C329.891 133.768 328.955 133.967 328.088 134.375L328.94 136.185ZM330.882 135.768C331.547 135.768 332.169 135.907 332.76 136.185L333.612 134.375C332.751 133.97 331.838 133.768 330.882 133.768V135.768ZM332.823 136.212C333.469 136.463 334.011 136.815 334.463 137.267L335.877 135.853C335.219 135.195 334.439 134.694 333.548 134.348L332.823 136.212ZM334.491 137.295C334.924 137.694 335.269 138.203 335.518 138.842L337.382 138.118C337.033 137.221 336.524 136.45 335.848 135.825L334.491 137.295ZM335.545 138.906C335.82 139.489 335.962 140.132 335.962 140.848H337.962C337.962 139.857 337.763 138.921 337.355 138.054L335.545 138.906ZM366.485 161.456L366.083 162.371L366.098 162.378L366.114 162.384L366.485 161.456ZM372.309 162.544L372.204 163.538L372.205 163.539L372.309 162.544ZM380.245 165.488L379.624 166.272L379.635 166.28L380.245 165.488ZM379.861 180.08L379.23 179.305L379.23 179.305L379.861 180.08ZM363.797 181.936L363.454 182.875L363.797 181.936ZM359.445 179.568L358.797 180.329L358.805 180.336L358.814 180.343L359.445 179.568ZM356.757 176.368L355.863 176.815L355.873 176.835L355.883 176.854L356.757 176.368ZM355.541 172.912L355.23 171.962L354.393 172.236L354.559 173.101L355.541 172.912ZM362.965 170.48L363.935 170.237L363.675 169.195L362.654 169.53L362.965 170.48ZM365.077 174.064L364.385 174.785L364.392 174.792L364.399 174.799L365.077 174.064ZM374.229 174.704L374.865 175.476L374.869 175.472L374.229 174.704ZM375.061 171.504L374.147 171.91L374.176 171.974L374.213 172.034L375.061 171.504ZM374.037 170.48L373.483 171.312L373.507 171.329L373.533 171.344L374.037 170.48ZM371.925 169.648L371.683 170.618L371.694 170.621L371.925 169.648ZM368.661 169.136L368.758 168.141L368.744 168.139L368.661 169.136ZM360.085 166.384L359.483 167.182L359.492 167.189L359.501 167.196L360.085 166.384ZM357.973 154.928L358.841 155.424L358.841 155.424L357.973 154.928ZM360.661 151.92L361.251 152.727L361.261 152.72L361.271 152.713L360.661 151.92ZM364.501 150L364.783 150.959L364.783 150.959L364.501 150ZM374.165 150.128L373.832 151.071L373.849 151.077L373.865 151.082L374.165 150.128ZM377.941 152.048L377.321 152.832L377.331 152.84L377.341 152.848L377.941 152.048ZM380.437 154.672L379.6 155.218L379.605 155.227L379.611 155.235L380.437 154.672ZM381.909 157.424L382.283 158.351L383.193 157.984L382.844 157.068L381.909 157.424ZM374.613 160.368L373.665 160.684L374.001 161.693L374.987 161.295L374.613 160.368ZM372.629 157.68L372.041 158.489L372.053 158.498L372.066 158.506L372.629 157.68ZM365.909 157.424L366.476 158.248L366.493 158.236L366.509 158.224L365.909 157.424ZM363.885 159.216C363.885 159.911 364.07 160.563 364.472 161.125C364.867 161.679 365.428 162.084 366.083 162.371L366.888 160.541C366.475 160.359 366.236 160.155 366.099 159.963C365.967 159.778 365.885 159.545 365.885 159.216H363.885ZM366.114 162.384C367.323 162.868 369.391 163.24 372.204 163.538L372.415 161.55C369.595 161.251 367.781 160.897 366.857 160.528L366.114 162.384ZM372.205 163.539C375.305 163.865 377.758 164.794 379.625 166.272L380.866 164.704C378.636 162.939 375.798 161.906 372.414 161.549L372.205 163.539ZM379.635 166.28C381.409 167.648 382.317 169.558 382.317 172.144H384.317C384.317 169.013 383.178 166.486 380.856 164.696L379.635 166.28ZM382.317 172.144V172.528H384.317V172.144H382.317ZM382.317 172.528C382.317 175.406 381.284 177.631 379.23 179.305L380.493 180.855C383.046 178.775 384.317 175.964 384.317 172.528H382.317ZM379.23 179.305C377.164 180.988 374.177 181.896 370.133 181.896V183.896C374.453 183.896 377.95 182.927 380.493 180.855L379.23 179.305ZM370.133 181.896C367.74 181.896 365.751 181.586 364.141 180.997L363.454 182.875C365.343 183.566 367.578 183.896 370.133 183.896V181.896ZM364.141 180.997C362.471 180.386 361.124 179.646 360.077 178.793L358.814 180.343C360.071 181.367 361.625 182.206 363.454 182.875L364.141 180.997ZM360.094 178.807C359.02 177.892 358.205 176.915 357.631 175.882L355.883 176.854C356.589 178.125 357.567 179.282 358.797 180.329L360.094 178.807ZM357.652 175.921C357.088 174.793 356.717 173.728 356.523 172.723L354.559 173.101C354.793 174.314 355.232 175.553 355.863 176.815L357.652 175.921ZM355.853 173.862L363.277 171.43L362.654 169.53L355.23 171.962L355.853 173.862ZM361.995 170.723C362.384 172.28 363.19 173.638 364.385 174.785L365.77 173.343C364.832 172.442 364.229 171.411 363.935 170.237L361.995 170.723ZM364.399 174.799C365.767 176.061 367.743 176.6 370.133 176.6V174.6C368.001 174.6 366.607 174.115 365.756 173.329L364.399 174.799ZM370.133 176.6C371.18 176.6 372.099 176.523 372.875 176.353C373.643 176.185 374.335 175.913 374.865 175.476L373.594 173.932C373.398 174.093 373.045 174.268 372.448 174.399C371.858 174.528 371.092 174.6 370.133 174.6V176.6ZM374.869 175.472C375.775 174.718 376.381 173.779 376.381 172.656H374.381C374.381 172.984 374.22 173.41 373.589 173.936L374.869 175.472ZM376.381 172.656C376.381 172.054 376.228 171.484 375.909 170.974L374.213 172.034C374.321 172.207 374.381 172.405 374.381 172.656H376.381ZM375.975 171.098C375.691 170.458 375.162 169.979 374.541 169.616L373.533 171.344C373.936 171.579 374.091 171.782 374.147 171.91L375.975 171.098ZM374.592 169.648C373.945 169.217 373.116 168.904 372.157 168.675L371.694 170.621C372.526 170.819 373.105 171.06 373.483 171.312L374.592 169.648ZM372.168 168.678C371.249 168.448 370.107 168.271 368.758 168.141L368.565 170.131C369.86 170.257 370.895 170.421 371.683 170.618L372.168 168.678ZM368.744 168.139C365.277 167.851 362.611 166.97 360.67 165.572L359.501 167.196C361.826 168.87 364.877 169.824 368.578 170.133L368.744 168.139ZM360.688 165.586C358.889 164.227 357.949 162.243 357.949 159.472H355.949C355.949 162.759 357.1 165.383 359.483 167.182L360.688 165.586ZM357.949 159.472V159.088H355.949V159.472H357.949ZM357.949 159.088C357.949 157.657 358.257 156.447 358.841 155.424L357.105 154.432C356.324 155.799 355.949 157.361 355.949 159.088H357.949ZM358.841 155.424C359.454 154.351 360.256 153.455 361.251 152.727L360.071 151.113C358.848 152.006 357.857 153.115 357.105 154.432L358.841 155.424ZM361.271 152.713C362.275 151.94 363.442 151.354 364.783 150.959L364.219 149.041C362.659 149.499 361.266 150.193 360.052 151.127L361.271 152.713ZM364.783 150.959C366.141 150.56 367.539 150.36 368.981 150.36V148.36C367.351 148.36 365.763 148.587 364.219 149.041L364.783 150.959ZM368.981 150.36C370.906 150.36 372.516 150.606 373.832 151.071L374.498 149.185C372.914 148.626 371.067 148.36 368.981 148.36V150.36ZM373.865 151.082C375.265 151.522 376.409 152.111 377.321 152.832L378.562 151.264C377.425 150.364 376.052 149.673 374.465 149.174L373.865 151.082ZM377.341 152.848C378.28 153.552 379.029 154.343 379.6 155.218L381.275 154.126C380.565 153.038 379.65 152.08 378.541 151.248L377.341 152.848ZM379.611 155.235C380.215 156.121 380.666 156.969 380.975 157.78L382.844 157.068C382.47 156.087 381.94 155.1 381.263 154.109L379.611 155.235ZM381.535 156.497L374.239 159.441L374.987 161.295L382.283 158.351L381.535 156.497ZM375.562 160.052C375.114 158.707 374.325 157.626 373.193 156.854L372.066 158.506C372.811 159.014 373.345 159.725 373.665 160.684L375.562 160.052ZM373.217 156.871C372.065 156.033 370.625 155.656 368.981 155.656V157.656C370.324 157.656 371.317 157.962 372.041 158.489L373.217 156.871ZM368.981 155.656C367.52 155.656 366.241 155.925 365.309 156.624L366.509 158.224C366.943 157.899 367.712 157.656 368.981 157.656V155.656ZM365.343 156.6C364.433 157.225 363.885 158.111 363.885 159.216H365.885C365.885 158.871 366.02 158.562 366.476 158.248L365.343 156.6ZM402.153 182V183H403.153V182H402.153ZM394.089 182H393.089V183H394.089V182ZM394.089 137.2V136.2H393.089V137.2H394.089ZM402.153 137.2H403.153V136.2H402.153V137.2ZM402.153 155.376H401.153V156.376H402.153V155.376ZM403.305 155.376V156.376H403.968L404.226 155.765L403.305 155.376ZM406.889 150.96L407.433 151.799L407.441 151.794L407.449 151.789L406.889 150.96ZM417.065 150.128L416.704 151.061L416.704 151.061L417.065 150.128ZM420.521 152.432L419.799 153.124L419.799 153.124L420.521 152.432ZM422.825 156.4L421.879 156.724L421.881 156.731L422.825 156.4ZM423.657 182V183H424.657V182H423.657ZM415.593 182H414.593V183H415.593V182ZM413.929 158.64L413.15 159.268L413.161 159.282L413.173 159.295L413.929 158.64ZM403.881 159.088L403.076 158.495L403.073 158.499L403.881 159.088ZM402.153 181H394.089V183H402.153V181ZM395.089 182V137.2H393.089V182H395.089ZM394.089 138.2H402.153V136.2H394.089V138.2ZM401.153 137.2V155.376H403.153V137.2H401.153ZM402.153 156.376H403.305V154.376H402.153V156.376ZM404.226 155.765C404.968 154.009 406.04 152.702 407.433 151.799L406.345 150.121C404.58 151.266 403.263 152.903 402.384 154.987L404.226 155.765ZM407.449 151.789C408.83 150.855 410.566 150.36 412.713 150.36V148.36C410.252 148.36 408.105 148.931 406.329 150.131L407.449 151.789ZM412.713 150.36C414.182 150.36 415.509 150.598 416.704 151.061L417.426 149.195C415.976 148.634 414.401 148.36 412.713 148.36V150.36ZM416.704 151.061C417.89 151.52 418.919 152.206 419.799 153.124L421.243 151.74C420.16 150.61 418.885 149.76 417.426 149.195L416.704 151.061ZM419.799 153.124C420.661 154.023 421.361 155.212 421.879 156.724L423.771 156.076C423.179 154.346 422.343 152.889 421.243 151.74L419.799 153.124ZM421.881 156.731C422.389 158.177 422.657 159.937 422.657 162.032H424.657C424.657 159.775 424.37 157.78 423.768 156.069L421.881 156.731ZM422.657 162.032V182H424.657V162.032H422.657ZM423.657 181H415.593V183H423.657V181ZM416.593 182V163.952H414.593V182H416.593ZM416.593 163.952C416.593 161.532 415.998 159.5 414.684 157.985L413.173 159.295C414.079 160.34 414.593 161.85 414.593 163.952H416.593ZM414.707 158.012C413.411 156.405 411.538 155.656 409.257 155.656V157.656C411.071 157.656 412.313 158.229 413.15 159.268L414.707 158.012ZM409.257 155.656C406.617 155.656 404.495 156.568 403.076 158.495L404.686 159.681C405.655 158.365 407.118 157.656 409.257 157.656V155.656ZM403.073 158.499C401.757 160.302 401.153 162.666 401.153 165.488H403.153C403.153 162.934 403.701 161.031 404.689 159.677L403.073 158.499ZM401.153 165.488V182H403.153V165.488H401.153Z" fill="white"/>
<path d="M441.56 146.168C441.56 146.744 441.8 147.184 442.28 147.488C442.776 147.792 443.672 147.992 444.968 148.088C446.36 148.2 447.416 148.536 448.136 149.096C448.872 149.64 449.24 150.44 449.24 151.496V151.64C449.24 152.216 449.12 152.736 448.88 153.2C448.656 153.648 448.336 154.032 447.92 154.352C447.52 154.672 447.024 154.912 446.432 155.072C445.856 155.248 445.224 155.336 444.536 155.336C443.608 155.336 442.808 155.216 442.136 154.976C441.48 154.72 440.928 154.392 440.48 153.992C440.048 153.576 439.72 153.112 439.496 152.6C439.272 152.072 439.144 151.544 439.112 151.016L440.888 150.584C440.968 151.496 441.32 152.232 441.944 152.792C442.568 153.336 443.4 153.608 444.44 153.608C445.32 153.608 446.024 153.44 446.552 153.104C447.096 152.752 447.368 152.264 447.368 151.64C447.368 150.968 447.104 150.488 446.576 150.2C446.048 149.912 445.192 149.728 444.008 149.648C442.632 149.552 441.576 149.232 440.84 148.688C440.104 148.144 439.736 147.352 439.736 146.312V146.168C439.736 145.608 439.856 145.12 440.096 144.704C440.336 144.272 440.656 143.912 441.056 143.624C441.472 143.336 441.936 143.12 442.448 142.976C442.96 142.832 443.496 142.76 444.056 142.76C444.84 142.76 445.528 142.872 446.12 143.096C446.712 143.304 447.208 143.584 447.608 143.936C448.008 144.272 448.312 144.664 448.52 145.112C448.744 145.56 448.888 146.008 448.952 146.456L447.176 146.888C447.096 146.12 446.784 145.52 446.24 145.088C445.712 144.656 445.016 144.44 444.152 144.44C443.816 144.44 443.488 144.48 443.168 144.56C442.864 144.624 442.592 144.728 442.352 144.872C442.112 145.016 441.92 145.2 441.776 145.424C441.632 145.632 441.56 145.88 441.56 146.168ZM453.375 143.096H457.119V138.2H458.991V143.096H463.599V144.824H458.991V152.552C458.991 153.032 459.207 153.272 459.639 153.272H463.023V155H458.967C458.423 155 457.975 154.824 457.623 154.472C457.287 154.12 457.119 153.672 457.119 153.128V144.824H453.375V143.096ZM476.975 143.096H478.847V155H476.975V152.84H476.687C476.303 153.608 475.799 154.216 475.175 154.664C474.551 155.112 473.759 155.336 472.799 155.336C472.143 155.336 471.535 155.224 470.975 155C470.431 154.792 469.959 154.472 469.559 154.04C469.175 153.608 468.871 153.072 468.647 152.432C468.439 151.792 468.335 151.048 468.335 150.2V143.096H470.207V149.96C470.207 151.208 470.463 152.12 470.975 152.696C471.487 153.272 472.271 153.56 473.327 153.56C474.463 153.56 475.351 153.176 475.991 152.408C476.647 151.624 476.975 150.584 476.975 149.288V143.096ZM492.39 153.176H492.102C491.91 153.544 491.662 153.864 491.358 154.136C491.07 154.408 490.75 154.632 490.398 154.808C490.062 154.984 489.702 155.112 489.318 155.192C488.934 155.288 488.566 155.336 488.214 155.336C487.414 155.336 486.67 155.2 485.982 154.928C485.294 154.656 484.686 154.264 484.158 153.752C483.646 153.24 483.238 152.608 482.934 151.856C482.646 151.088 482.502 150.216 482.502 149.24V148.856C482.502 147.896 482.654 147.04 482.958 146.288C483.262 145.52 483.67 144.88 484.182 144.368C484.694 143.84 485.294 143.44 485.982 143.168C486.67 142.896 487.398 142.76 488.166 142.76C488.982 142.76 489.742 142.944 490.446 143.312C491.166 143.664 491.718 144.216 492.102 144.968H492.39V138.2H494.262V155H492.39V153.176ZM488.406 153.56C488.966 153.56 489.486 153.456 489.966 153.248C490.446 153.04 490.862 152.744 491.214 152.36C491.582 151.976 491.87 151.52 492.078 150.992C492.286 150.448 492.39 149.848 492.39 149.192V148.904C492.39 148.264 492.286 147.68 492.078 147.152C491.87 146.608 491.582 146.144 491.214 145.76C490.862 145.376 490.438 145.08 489.942 144.872C489.462 144.648 488.95 144.536 488.406 144.536C487.846 144.536 487.318 144.64 486.822 144.848C486.342 145.056 485.918 145.352 485.55 145.736C485.198 146.12 484.918 146.576 484.71 147.104C484.518 147.632 484.422 148.216 484.422 148.856V149.24C484.422 149.912 484.518 150.512 484.71 151.04C484.918 151.568 485.198 152.024 485.55 152.408C485.918 152.776 486.342 153.064 486.822 153.272C487.302 153.464 487.83 153.56 488.406 153.56ZM501.565 139.544C501.565 139.08 501.725 138.688 502.045 138.368C502.381 138.032 502.781 137.864 503.245 137.864C503.709 137.864 504.101 138.032 504.421 138.368C504.757 138.688 504.925 139.08 504.925 139.544C504.925 140.008 504.757 140.408 504.421 140.744C504.101 141.064 503.709 141.224 503.245 141.224C502.781 141.224 502.381 141.064 502.045 140.744C501.725 140.408 501.565 140.008 501.565 139.544ZM498.157 153.272H502.333V144.824H498.589V143.096H504.205V153.272H508.093V155H498.157V153.272ZM523.797 149.192C523.797 150.184 523.629 151.064 523.293 151.832C522.973 152.584 522.541 153.224 521.997 153.752C521.453 154.264 520.813 154.656 520.077 154.928C519.357 155.2 518.605 155.336 517.821 155.336C517.021 155.336 516.261 155.2 515.541 154.928C514.821 154.656 514.189 154.264 513.645 153.752C513.101 153.224 512.661 152.584 512.325 151.832C512.005 151.064 511.845 150.184 511.845 149.192V148.904C511.845 147.928 512.005 147.064 512.325 146.312C512.661 145.544 513.101 144.896 513.645 144.368C514.205 143.84 514.845 143.44 515.565 143.168C516.285 142.896 517.037 142.76 517.821 142.76C518.605 142.76 519.357 142.896 520.077 143.168C520.797 143.44 521.429 143.84 521.973 144.368C522.533 144.896 522.973 145.544 523.293 146.312C523.629 147.064 523.797 147.928 523.797 148.904V149.192ZM517.821 153.56C518.397 153.56 518.925 153.464 519.405 153.272C519.901 153.064 520.333 152.768 520.701 152.384C521.069 152 521.357 151.544 521.565 151.016C521.773 150.472 521.877 149.864 521.877 149.192V148.904C521.877 148.264 521.773 147.68 521.565 147.152C521.357 146.608 521.069 146.144 520.701 145.76C520.333 145.376 519.901 145.08 519.405 144.872C518.909 144.648 518.381 144.536 517.821 144.536C517.261 144.536 516.733 144.648 516.237 144.872C515.741 145.08 515.309 145.376 514.941 145.76C514.573 146.144 514.285 146.608 514.077 147.152C513.869 147.68 513.765 148.264 513.765 148.904V149.192C513.765 149.864 513.869 150.472 514.077 151.016C514.285 151.544 514.573 152 514.941 152.384C515.309 152.768 515.733 153.064 516.213 153.272C516.709 153.464 517.245 153.56 517.821 153.56ZM529.732 146.168C529.732 146.744 529.972 147.184 530.452 147.488C530.948 147.792 531.844 147.992 533.14 148.088C534.532 148.2 535.588 148.536 536.308 149.096C537.044 149.64 537.412 150.44 537.412 151.496V151.64C537.412 152.216 537.292 152.736 537.052 153.2C536.828 153.648 536.508 154.032 536.092 154.352C535.692 154.672 535.196 154.912 534.604 155.072C534.028 155.248 533.396 155.336 532.708 155.336C531.78 155.336 530.98 155.216 530.308 154.976C529.652 154.72 529.1 154.392 528.652 153.992C528.22 153.576 527.892 153.112 527.668 152.6C527.444 152.072 527.316 151.544 527.284 151.016L529.06 150.584C529.14 151.496 529.492 152.232 530.116 152.792C530.74 153.336 531.572 153.608 532.612 153.608C533.492 153.608 534.196 153.44 534.724 153.104C535.268 152.752 535.54 152.264 535.54 151.64C535.54 150.968 535.276 150.488 534.748 150.2C534.22 149.912 533.364 149.728 532.18 149.648C530.804 149.552 529.748 149.232 529.012 148.688C528.276 148.144 527.908 147.352 527.908 146.312V146.168C527.908 145.608 528.028 145.12 528.268 144.704C528.508 144.272 528.828 143.912 529.228 143.624C529.644 143.336 530.108 143.12 530.62 142.976C531.132 142.832 531.668 142.76 532.228 142.76C533.012 142.76 533.7 142.872 534.292 143.096C534.884 143.304 535.38 143.584 535.78 143.936C536.18 144.272 536.484 144.664 536.692 145.112C536.916 145.56 537.06 146.008 537.124 146.456L535.348 146.888C535.268 146.12 534.956 145.52 534.412 145.088C533.884 144.656 533.188 144.44 532.324 144.44C531.988 144.44 531.66 144.48 531.34 144.56C531.036 144.624 530.764 144.728 530.524 144.872C530.284 145.016 530.092 145.2 529.948 145.424C529.804 145.632 529.732 145.88 529.732 146.168Z" fill="white"/>
<path d="M442.28 147.488L442.012 147.91L442.019 147.914L442.28 147.488ZM444.968 148.088L445.008 147.59L445.005 147.589L444.968 148.088ZM448.136 149.096L447.829 149.491L447.839 149.498L448.136 149.096ZM448.88 153.2L448.436 152.97L448.433 152.976L448.88 153.2ZM447.92 154.352L447.615 153.956L447.608 153.962L447.92 154.352ZM446.432 155.072L446.302 154.589L446.294 154.591L446.286 154.594L446.432 155.072ZM442.136 154.976L441.954 155.442L441.961 155.444L441.968 155.447L442.136 154.976ZM440.48 153.992L440.133 154.352L440.14 154.359L440.147 154.365L440.48 153.992ZM439.496 152.6L439.036 152.795L439.038 152.8L439.496 152.6ZM439.112 151.016L438.994 150.53L438.588 150.629L438.613 151.046L439.112 151.016ZM440.888 150.584L441.386 150.54L441.335 149.961L440.77 150.098L440.888 150.584ZM441.944 152.792L441.61 153.164L441.615 153.169L441.944 152.792ZM446.552 153.104L446.82 153.526L446.824 153.524L446.552 153.104ZM446.576 150.2L446.337 150.639L446.337 150.639L446.576 150.2ZM444.008 149.648L443.973 150.147L443.974 150.147L444.008 149.648ZM440.84 148.688L440.543 149.09L440.543 149.09L440.84 148.688ZM440.096 144.704L440.529 144.954L440.533 144.947L440.096 144.704ZM441.056 143.624L440.771 143.213L440.764 143.218L441.056 143.624ZM442.448 142.976L442.313 142.495L442.313 142.495L442.448 142.976ZM446.12 143.096L445.943 143.564L445.954 143.568L446.12 143.096ZM447.608 143.936L447.278 144.311L447.286 144.319L447.608 143.936ZM448.52 145.112L448.066 145.323L448.07 145.329L448.073 145.336L448.52 145.112ZM448.952 146.456L449.07 146.942L449.511 146.835L449.447 146.385L448.952 146.456ZM447.176 146.888L446.679 146.94L446.738 147.509L447.294 147.374L447.176 146.888ZM446.24 145.088L445.923 145.475L445.929 145.48L446.24 145.088ZM443.168 144.56L443.271 145.049L443.28 145.047L443.289 145.045L443.168 144.56ZM441.776 145.424L442.187 145.709L442.192 145.702L442.197 145.694L441.776 145.424ZM441.06 146.168C441.06 146.912 441.385 147.513 442.012 147.91L442.548 147.066C442.215 146.855 442.06 146.576 442.06 146.168H441.06ZM442.019 147.914C442.626 148.287 443.631 148.49 444.931 148.587L445.005 147.589C443.713 147.494 442.926 147.297 442.541 147.062L442.019 147.914ZM444.928 148.586C446.271 148.694 447.217 149.014 447.829 149.491L448.443 148.701C447.615 148.058 446.449 147.706 445.008 147.59L444.928 148.586ZM447.839 149.498C448.426 149.932 448.74 150.571 448.74 151.496H449.74C449.74 150.309 449.318 149.348 448.433 148.694L447.839 149.498ZM448.74 151.496V151.64H449.74V151.496H448.74ZM448.74 151.64C448.74 152.144 448.636 152.584 448.436 152.97L449.324 153.43C449.604 152.888 449.74 152.288 449.74 151.64H448.74ZM448.433 152.976C448.244 153.354 447.974 153.679 447.615 153.956L448.225 154.748C448.698 154.385 449.068 153.942 449.327 153.424L448.433 152.976ZM447.608 153.962C447.271 154.231 446.84 154.444 446.302 154.589L446.562 155.555C447.208 155.38 447.769 155.113 448.232 154.742L447.608 153.962ZM446.286 154.594C445.763 154.753 445.181 154.836 444.536 154.836V155.836C445.267 155.836 445.949 155.743 446.578 155.55L446.286 154.594ZM444.536 154.836C443.649 154.836 442.909 154.721 442.304 154.505L441.968 155.447C442.707 155.711 443.567 155.836 444.536 155.836V154.836ZM442.318 154.51C441.708 154.272 441.21 153.973 440.813 153.619L440.147 154.365C440.646 154.811 441.252 155.168 441.954 155.442L442.318 154.51ZM440.827 153.632C440.439 153.258 440.15 152.847 439.954 152.4L439.038 152.8C439.29 153.377 439.657 153.894 440.133 154.352L440.827 153.632ZM439.956 152.405C439.753 151.925 439.639 151.452 439.611 150.986L438.613 151.046C438.649 151.636 438.791 152.219 439.036 152.795L439.956 152.405ZM439.23 151.502L441.006 151.07L440.77 150.098L438.994 150.53L439.23 151.502ZM440.39 150.628C440.48 151.653 440.883 152.511 441.61 153.164L442.278 152.42C441.757 151.953 441.456 151.339 441.386 150.54L440.39 150.628ZM441.615 153.169C442.352 153.811 443.311 154.108 444.44 154.108V153.108C443.489 153.108 442.784 152.861 442.273 152.415L441.615 153.169ZM444.44 154.108C445.378 154.108 446.186 153.93 446.82 153.526L446.284 152.682C445.862 152.95 445.262 153.108 444.44 153.108V154.108ZM446.824 153.524C447.503 153.084 447.868 152.441 447.868 151.64H446.868C446.868 152.087 446.689 152.42 446.28 152.684L446.824 153.524ZM447.868 151.64C447.868 150.811 447.526 150.149 446.815 149.761L446.337 150.639C446.682 150.827 446.868 151.125 446.868 151.64H447.868ZM446.815 149.761C446.188 149.419 445.241 149.23 444.042 149.149L443.974 150.147C445.143 150.226 445.908 150.405 446.337 150.639L446.815 149.761ZM444.043 149.149C442.717 149.057 441.767 148.752 441.137 148.286L440.543 149.09C441.385 149.712 442.547 150.047 443.973 150.147L444.043 149.149ZM441.137 148.286C440.547 147.85 440.236 147.218 440.236 146.312H439.236C439.236 147.486 439.661 148.438 440.543 149.09L441.137 148.286ZM440.236 146.312V146.168H439.236V146.312H440.236ZM440.236 146.168C440.236 145.681 440.34 145.282 440.529 144.954L439.663 144.454C439.372 144.958 439.236 145.535 439.236 146.168H440.236ZM440.533 144.947C440.737 144.579 441.008 144.275 441.348 144.03L440.764 143.218C440.304 143.549 439.935 143.965 439.659 144.461L440.533 144.947ZM441.341 144.035C441.709 143.78 442.122 143.587 442.583 143.457L442.313 142.495C441.75 142.653 441.235 142.892 440.771 143.213L441.341 144.035ZM442.583 143.457C443.049 143.326 443.539 143.26 444.056 143.26V142.26C443.453 142.26 442.871 142.338 442.313 142.495L442.583 143.457ZM444.056 143.26C444.793 143.26 445.419 143.365 445.943 143.564L446.297 142.628C445.637 142.379 444.887 142.26 444.056 142.26V143.26ZM445.954 143.568C446.496 143.758 446.934 144.009 447.278 144.311L447.938 143.561C447.482 143.159 446.928 142.85 446.286 142.624L445.954 143.568ZM447.286 144.319C447.634 144.611 447.891 144.945 448.066 145.323L448.974 144.901C448.733 144.383 448.382 143.933 447.93 143.553L447.286 144.319ZM448.073 145.336C448.275 145.741 448.401 146.137 448.457 146.527L449.447 146.385C449.375 145.879 449.213 145.379 448.967 144.888L448.073 145.336ZM448.834 145.97L447.058 146.402L447.294 147.374L449.07 146.942L448.834 145.97ZM447.673 146.836C447.581 145.951 447.212 145.222 446.551 144.696L445.929 145.48C446.356 145.818 446.611 146.289 446.679 146.94L447.673 146.836ZM446.557 144.701C445.918 144.178 445.1 143.94 444.152 143.94V144.94C444.932 144.94 445.506 145.134 445.923 145.475L446.557 144.701ZM444.152 143.94C443.776 143.94 443.407 143.985 443.047 144.075L443.289 145.045C443.569 144.975 443.856 144.94 444.152 144.94V143.94ZM443.065 144.071C442.713 144.145 442.387 144.268 442.095 144.443L442.609 145.301C442.797 145.188 443.015 145.103 443.271 145.049L443.065 144.071ZM442.095 144.443C441.792 144.625 441.543 144.862 441.355 145.154L442.197 145.694C442.297 145.538 442.432 145.407 442.609 145.301L442.095 144.443ZM441.365 145.139C441.155 145.442 441.06 145.793 441.06 146.168H442.06C442.06 145.967 442.109 145.822 442.187 145.709L441.365 145.139ZM453.375 143.096V142.596H452.875V143.096H453.375ZM457.119 143.096V143.596H457.619V143.096H457.119ZM457.119 138.2V137.7H456.619V138.2H457.119ZM458.991 138.2H459.491V137.7H458.991V138.2ZM458.991 143.096H458.491V143.596H458.991V143.096ZM463.599 143.096H464.099V142.596H463.599V143.096ZM463.599 144.824V145.324H464.099V144.824H463.599ZM458.991 144.824V144.324H458.491V144.824H458.991ZM463.023 153.272H463.523V152.772H463.023V153.272ZM463.023 155V155.5H463.523V155H463.023ZM457.623 154.472L457.262 154.817L457.27 154.826L457.623 154.472ZM457.119 144.824H457.619V144.324H457.119V144.824ZM453.375 144.824H452.875V145.324H453.375V144.824ZM453.375 143.596H457.119V142.596H453.375V143.596ZM457.619 143.096V138.2H456.619V143.096H457.619ZM457.119 138.7H458.991V137.7H457.119V138.7ZM458.491 138.2V143.096H459.491V138.2H458.491ZM458.991 143.596H463.599V142.596H458.991V143.596ZM463.099 143.096V144.824H464.099V143.096H463.099ZM463.599 144.324H458.991V145.324H463.599V144.324ZM458.491 144.824V152.552H459.491V144.824H458.491ZM458.491 152.552C458.491 152.857 458.559 153.179 458.782 153.426C459.014 153.684 459.332 153.772 459.639 153.772V152.772C459.515 152.772 459.509 152.74 459.525 152.758C459.532 152.765 459.491 152.727 459.491 152.552H458.491ZM459.639 153.772H463.023V152.772H459.639V153.772ZM462.523 153.272V155H463.523V153.272H462.523ZM463.023 154.5H458.967V155.5H463.023V154.5ZM458.967 154.5C458.542 154.5 458.226 154.368 457.977 154.118L457.27 154.826C457.725 155.28 458.304 155.5 458.967 155.5V154.5ZM457.985 154.127C457.749 153.879 457.619 153.56 457.619 153.128H456.619C456.619 153.784 456.826 154.361 457.262 154.817L457.985 154.127ZM457.619 153.128V144.824H456.619V153.128H457.619ZM457.119 144.324H453.375V145.324H457.119V144.324ZM453.875 144.824V143.096H452.875V144.824H453.875ZM476.975 143.096V142.596H476.475V143.096H476.975ZM478.847 143.096H479.347V142.596H478.847V143.096ZM478.847 155V155.5H479.347V155H478.847ZM476.975 155H476.475V155.5H476.975V155ZM476.975 152.84H477.475V152.34H476.975V152.84ZM476.687 152.84V152.34H476.378L476.239 152.616L476.687 152.84ZM475.175 154.664L475.466 155.07L475.466 155.07L475.175 154.664ZM470.975 155L471.16 154.536L471.153 154.533L470.975 155ZM469.559 154.04L469.185 154.372L469.192 154.38L469.559 154.04ZM468.647 152.432L468.171 152.587L468.175 152.597L468.647 152.432ZM468.335 143.096V142.596H467.835V143.096H468.335ZM470.207 143.096H470.707V142.596H470.207V143.096ZM470.975 152.696L471.348 152.364L471.348 152.364L470.975 152.696ZM475.991 152.408L475.607 152.087L475.607 152.088L475.991 152.408ZM476.975 143.596H478.847V142.596H476.975V143.596ZM478.347 143.096V155H479.347V143.096H478.347ZM478.847 154.5H476.975V155.5H478.847V154.5ZM477.475 155V152.84H476.475V155H477.475ZM476.975 152.34H476.687V153.34H476.975V152.34ZM476.239 152.616C475.887 153.32 475.434 153.863 474.883 154.258L475.466 155.07C476.164 154.569 476.718 153.896 477.134 153.064L476.239 152.616ZM474.883 154.258C474.363 154.631 473.68 154.836 472.799 154.836V155.836C473.837 155.836 474.738 155.593 475.466 155.07L474.883 154.258ZM472.799 154.836C472.201 154.836 471.656 154.734 471.16 154.536L470.789 155.464C471.413 155.714 472.085 155.836 472.799 155.836V154.836ZM471.153 154.533C470.682 154.353 470.274 154.077 469.926 153.7L469.192 154.38C469.643 154.867 470.18 155.231 470.796 155.467L471.153 154.533ZM469.932 153.708C469.598 153.332 469.325 152.856 469.119 152.267L468.175 152.597C468.417 153.288 468.751 153.884 469.185 154.372L469.932 153.708ZM469.122 152.277C468.934 151.698 468.835 151.009 468.835 150.2H467.835C467.835 151.087 467.943 151.886 468.171 152.587L469.122 152.277ZM468.835 150.2V143.096H467.835V150.2H468.835ZM468.335 143.596H470.207V142.596H468.335V143.596ZM469.707 143.096V149.96H470.707V143.096H469.707ZM469.707 149.96C469.707 151.259 469.97 152.319 470.601 153.028L471.348 152.364C470.955 151.921 470.707 151.157 470.707 149.96H469.707ZM470.601 153.028C471.239 153.746 472.183 154.06 473.327 154.06V153.06C472.358 153.06 471.734 152.798 471.348 152.364L470.601 153.028ZM473.327 154.06C474.588 154.06 475.626 153.626 476.375 152.728L475.607 152.088C475.075 152.726 474.337 153.06 473.327 153.06V154.06ZM476.374 152.729C477.124 151.833 477.475 150.669 477.475 149.288H476.475C476.475 150.499 476.17 151.415 475.607 152.087L476.374 152.729ZM477.475 149.288V143.096H476.475V149.288H477.475ZM492.39 153.176H492.89V152.676H492.39V153.176ZM492.102 153.176V152.676H491.799L491.659 152.945L492.102 153.176ZM491.358 154.136L491.024 153.763L491.015 153.772L491.358 154.136ZM490.398 154.808L490.174 154.361L490.166 154.365L490.398 154.808ZM489.318 155.192L489.216 154.703L489.206 154.705L489.197 154.707L489.318 155.192ZM485.982 154.928L485.798 155.393L485.982 154.928ZM484.158 153.752L483.804 154.106L483.81 154.111L484.158 153.752ZM482.934 151.856L482.466 152.032L482.47 152.043L482.934 151.856ZM482.958 146.288L483.422 146.475L483.423 146.472L482.958 146.288ZM484.182 144.368L484.536 144.722L484.541 144.716L484.182 144.368ZM490.446 143.312L490.214 143.755L490.226 143.761L490.446 143.312ZM492.102 144.968L491.657 145.195L491.796 145.468H492.102V144.968ZM492.39 144.968V145.468H492.89V144.968H492.39ZM492.39 138.2V137.7H491.89V138.2H492.39ZM494.262 138.2H494.762V137.7H494.262V138.2ZM494.262 155V155.5H494.762V155H494.262ZM492.39 155H491.89V155.5H492.39V155ZM489.966 153.248L489.767 152.789L489.767 152.789L489.966 153.248ZM491.214 152.36L490.853 152.014L490.845 152.022L491.214 152.36ZM492.078 150.992L492.543 151.175L492.545 151.171L492.078 150.992ZM492.078 147.152L491.611 147.331L491.613 147.335L492.078 147.152ZM491.214 145.76L490.845 146.098L490.853 146.106L491.214 145.76ZM489.942 144.872L489.73 145.325L489.739 145.329L489.749 145.333L489.942 144.872ZM486.822 144.848L486.629 144.387L486.623 144.389L486.822 144.848ZM485.55 145.736L485.189 145.39L485.181 145.398L485.55 145.736ZM484.71 147.104L484.245 146.921L484.24 146.933L484.71 147.104ZM484.71 151.04L484.24 151.211L484.245 151.223L484.71 151.04ZM485.55 152.408L485.181 152.746L485.189 152.754L485.196 152.762L485.55 152.408ZM486.822 153.272L486.623 153.731L486.63 153.734L486.636 153.736L486.822 153.272ZM492.39 152.676H492.102V153.676H492.39V152.676ZM491.659 152.945C491.494 153.26 491.283 153.532 491.025 153.763L491.691 154.509C492.041 154.196 492.326 153.828 492.545 153.407L491.659 152.945ZM491.015 153.772C490.762 154.011 490.482 154.207 490.174 154.361L490.622 155.255C491.018 155.057 491.378 154.805 491.701 154.5L491.015 153.772ZM490.166 154.365C489.872 154.519 489.556 154.632 489.216 154.703L489.42 155.681C489.848 155.592 490.252 155.449 490.63 155.251L490.166 154.365ZM489.197 154.707C488.847 154.794 488.52 154.836 488.214 154.836V155.836C488.612 155.836 489.02 155.782 489.439 155.677L489.197 154.707ZM488.214 154.836C487.472 154.836 486.791 154.71 486.166 154.463L485.798 155.393C486.549 155.69 487.356 155.836 488.214 155.836V154.836ZM486.166 154.463C485.539 154.215 484.986 153.859 484.506 153.393L483.81 154.111C484.385 154.669 485.049 155.097 485.798 155.393L486.166 154.463ZM484.511 153.398C484.052 152.939 483.679 152.366 483.397 151.669L482.47 152.043C482.797 152.85 483.24 153.541 483.804 154.106L484.511 153.398ZM483.402 151.68C483.139 150.978 483.002 150.167 483.002 149.24H482.002C482.002 150.265 482.153 151.198 482.466 152.032L483.402 151.68ZM483.002 149.24V148.856H482.002V149.24H483.002ZM483.002 148.856C483.002 147.949 483.146 147.158 483.421 146.475L482.494 146.101C482.162 146.922 482.002 147.843 482.002 148.856H483.002ZM483.423 146.472C483.705 145.759 484.078 145.179 484.535 144.722L483.828 144.014C483.262 144.581 482.819 145.281 482.493 146.104L483.423 146.472ZM484.541 144.716C485.003 144.239 485.543 143.879 486.166 143.633L485.798 142.703C485.045 143.001 484.385 143.441 483.823 144.02L484.541 144.716ZM486.166 143.633C486.793 143.385 487.458 143.26 488.166 143.26V142.26C487.337 142.26 486.547 142.407 485.798 142.703L486.166 143.633ZM488.166 143.26C488.904 143.26 489.584 143.426 490.214 143.755L490.678 142.869C489.9 142.462 489.06 142.26 488.166 142.26V143.26ZM490.226 143.761C490.844 144.063 491.319 144.534 491.657 145.195L492.547 144.741C492.117 143.898 491.488 143.265 490.666 142.863L490.226 143.761ZM492.102 145.468H492.39V144.468H492.102V145.468ZM492.89 144.968V138.2H491.89V144.968H492.89ZM492.39 138.7H494.262V137.7H492.39V138.7ZM493.762 138.2V155H494.762V138.2H493.762ZM494.262 154.5H492.39V155.5H494.262V154.5ZM492.89 155V153.176H491.89V155H492.89ZM488.406 154.06C489.029 154.06 489.618 153.944 490.165 153.707L489.767 152.789C489.354 152.968 488.902 153.06 488.406 153.06V154.06ZM490.165 153.707C490.709 153.471 491.183 153.134 491.583 152.698L490.845 152.022C490.541 152.354 490.183 152.609 489.767 152.789L490.165 153.707ZM491.575 152.706C491.991 152.272 492.313 151.76 492.543 151.175L491.613 150.809C491.427 151.28 491.173 151.68 490.853 152.014L491.575 152.706ZM492.545 151.171C492.777 150.563 492.89 149.901 492.89 149.192H491.89C491.89 149.795 491.795 150.333 491.611 150.813L492.545 151.171ZM492.89 149.192V148.904H491.89V149.192H492.89ZM492.89 148.904C492.89 148.209 492.777 147.562 492.543 146.969L491.613 147.335C491.795 147.798 491.89 148.319 491.89 148.904H492.89ZM492.545 146.973C492.315 146.373 491.993 145.851 491.575 145.414L490.853 146.106C491.171 146.437 491.424 146.843 491.611 147.331L492.545 146.973ZM491.583 145.422C491.18 144.983 490.696 144.646 490.135 144.411L489.749 145.333C490.18 145.514 490.544 145.769 490.845 146.098L491.583 145.422ZM490.153 144.419C489.605 144.163 489.021 144.036 488.406 144.036V145.036C488.879 145.036 489.319 145.133 489.73 145.325L490.153 144.419ZM488.406 144.036C487.782 144.036 487.188 144.152 486.629 144.387L487.015 145.309C487.448 145.128 487.91 145.036 488.406 145.036V144.036ZM486.623 144.389C486.081 144.624 485.602 144.959 485.189 145.39L485.911 146.082C486.234 145.745 486.603 145.488 487.021 145.307L486.623 144.389ZM485.181 145.398C484.784 145.831 484.473 146.341 484.245 146.921L485.175 147.287C485.363 146.811 485.611 146.409 485.919 146.074L485.181 145.398ZM484.24 146.933C484.026 147.523 483.922 148.166 483.922 148.856H484.922C484.922 148.266 485.01 147.741 485.18 147.275L484.24 146.933ZM483.922 148.856V149.24H484.922V148.856H483.922ZM483.922 149.24C483.922 149.959 484.025 150.619 484.24 151.211L485.18 150.869C485.011 150.405 484.922 149.865 484.922 149.24H483.922ZM484.245 151.223C484.473 151.803 484.784 152.313 485.181 152.746L485.919 152.07C485.611 151.735 485.363 151.333 485.175 150.857L484.245 151.223ZM485.196 152.762C485.609 153.174 486.086 153.498 486.623 153.731L487.021 152.813C486.598 152.63 486.227 152.378 485.903 152.054L485.196 152.762ZM486.636 153.736C487.182 153.954 487.774 154.06 488.406 154.06V153.06C487.886 153.06 487.422 152.974 487.008 152.808L486.636 153.736ZM502.045 138.368L502.399 138.722L502.399 138.722L502.045 138.368ZM504.421 138.368L504.059 138.713L504.068 138.722L504.076 138.73L504.421 138.368ZM504.421 140.744L504.068 140.39L504.068 140.39L504.421 140.744ZM502.045 140.744L501.683 141.089L501.692 141.098L501.7 141.106L502.045 140.744ZM498.157 153.272V152.772H497.657V153.272H498.157ZM502.333 153.272V153.772H502.833V153.272H502.333ZM502.333 144.824H502.833V144.324H502.333V144.824ZM498.589 144.824H498.089V145.324H498.589V144.824ZM498.589 143.096V142.596H498.089V143.096H498.589ZM504.205 143.096H504.705V142.596H504.205V143.096ZM504.205 153.272H503.705V153.772H504.205V153.272ZM508.093 153.272H508.593V152.772H508.093V153.272ZM508.093 155V155.5H508.593V155H508.093ZM498.157 155H497.657V155.5H498.157V155ZM502.065 139.544C502.065 139.209 502.175 138.945 502.399 138.722L501.692 138.014C501.275 138.431 501.065 138.951 501.065 139.544H502.065ZM502.399 138.722C502.644 138.477 502.917 138.364 503.245 138.364V137.364C502.645 137.364 502.119 137.587 501.692 138.014L502.399 138.722ZM503.245 138.364C503.572 138.364 503.834 138.476 504.059 138.713L504.783 138.023C504.369 137.588 503.846 137.364 503.245 137.364V138.364ZM504.076 138.73C504.313 138.956 504.425 139.217 504.425 139.544H505.425C505.425 138.943 505.201 138.42 504.766 138.006L504.076 138.73ZM504.425 139.544C504.425 139.872 504.312 140.146 504.068 140.39L504.775 141.098C505.202 140.67 505.425 140.144 505.425 139.544H504.425ZM504.068 140.39C503.844 140.614 503.58 140.724 503.245 140.724V141.724C503.838 141.724 504.358 141.514 504.775 141.098L504.068 140.39ZM503.245 140.724C502.91 140.724 502.633 140.613 502.39 140.382L501.7 141.106C502.129 141.515 502.653 141.724 503.245 141.724V140.724ZM502.407 140.399C502.176 140.156 502.065 139.88 502.065 139.544H501.065C501.065 140.136 501.275 140.66 501.683 141.089L502.407 140.399ZM498.157 153.772H502.333V152.772H498.157V153.772ZM502.833 153.272V144.824H501.833V153.272H502.833ZM502.333 144.324H498.589V145.324H502.333V144.324ZM499.089 144.824V143.096H498.089V144.824H499.089ZM498.589 143.596H504.205V142.596H498.589V143.596ZM503.705 143.096V153.272H504.705V143.096H503.705ZM504.205 153.772H508.093V152.772H504.205V153.772ZM507.593 153.272V155H508.593V153.272H507.593ZM508.093 154.5H498.157V155.5H508.093V154.5ZM498.657 155V153.272H497.657V155H498.657ZM523.293 151.832L522.834 151.632L522.832 151.636L523.293 151.832ZM521.997 153.752L522.339 154.116L522.345 154.111L521.997 153.752ZM520.077 154.928L519.903 154.459L519.9 154.46L520.077 154.928ZM515.541 154.928L515.364 155.396L515.541 154.928ZM513.645 153.752L513.296 154.111L513.302 154.116L513.645 153.752ZM512.325 151.832L511.863 152.024L511.868 152.036L512.325 151.832ZM512.325 146.312L511.866 146.112L511.864 146.116L512.325 146.312ZM513.645 144.368L513.302 144.004L513.296 144.009L513.645 144.368ZM515.565 143.168L515.741 143.636L515.741 143.636L515.565 143.168ZM520.077 143.168L519.9 143.636L519.9 143.636L520.077 143.168ZM521.973 144.368L521.624 144.727L521.63 144.732L521.973 144.368ZM523.293 146.312L522.831 146.504L522.836 146.516L523.293 146.312ZM519.405 153.272L519.59 153.736L519.598 153.733L519.405 153.272ZM520.701 152.384L520.34 152.038L520.34 152.038L520.701 152.384ZM521.565 151.016L522.03 151.199L522.032 151.195L521.565 151.016ZM521.565 147.152L521.098 147.331L521.099 147.335L521.565 147.152ZM519.405 144.872L519.199 145.328L519.211 145.333L519.405 144.872ZM516.237 144.872L516.43 145.333L516.442 145.328L516.237 144.872ZM514.077 147.152L514.542 147.335L514.544 147.331L514.077 147.152ZM514.077 151.016L513.61 151.195L513.611 151.199L514.077 151.016ZM514.941 152.384L515.302 152.038L515.302 152.038L514.941 152.384ZM516.213 153.272L516.014 153.731L516.023 153.735L516.032 153.738L516.213 153.272ZM523.297 149.192C523.297 150.127 523.138 150.937 522.834 151.632L523.751 152.032C524.119 151.191 524.297 150.241 524.297 149.192H523.297ZM522.832 151.636C522.536 152.332 522.141 152.915 521.648 153.393L522.345 154.111C522.94 153.533 523.409 152.836 523.753 152.028L522.832 151.636ZM521.654 153.388C521.161 153.852 520.58 154.209 519.903 154.459L520.25 155.397C521.046 155.103 521.744 154.676 522.339 154.116L521.654 153.388ZM519.9 154.46C519.237 154.711 518.545 154.836 517.821 154.836V155.836C518.664 155.836 519.476 155.689 520.253 155.396L519.9 154.46ZM517.821 154.836C517.079 154.836 516.379 154.71 515.717 154.46L515.364 155.396C516.143 155.69 516.963 155.836 517.821 155.836V154.836ZM515.717 154.46C515.057 154.211 514.482 153.853 513.987 153.388L513.302 154.116C513.895 154.675 514.584 155.101 515.364 155.396L515.717 154.46ZM513.993 153.393C513.498 152.913 513.093 152.327 512.781 151.628L511.868 152.036C512.228 152.841 512.703 153.535 513.296 154.111L513.993 153.393ZM512.786 151.64C512.496 150.943 512.345 150.13 512.345 149.192H511.345C511.345 150.238 511.513 151.185 511.863 152.024L512.786 151.64ZM512.345 149.192V148.904H511.345V149.192H512.345ZM512.345 148.904C512.345 147.982 512.496 147.187 512.785 146.508L511.864 146.116C511.514 146.941 511.345 147.874 511.345 148.904H512.345ZM512.783 146.512C513.095 145.798 513.5 145.205 513.993 144.727L513.296 144.009C512.701 144.587 512.226 145.29 511.866 146.112L512.783 146.512ZM513.988 144.732C514.5 144.249 515.083 143.884 515.741 143.636L515.388 142.7C514.606 142.996 513.91 143.431 513.302 144.004L513.988 144.732ZM515.741 143.636C516.404 143.385 517.096 143.26 517.821 143.26V142.26C516.977 142.26 516.165 142.407 515.388 142.7L515.741 143.636ZM517.821 143.26C518.545 143.26 519.237 143.385 519.9 143.636L520.253 142.7C519.476 142.407 518.664 142.26 517.821 142.26V143.26ZM519.9 143.636C520.557 143.884 521.13 144.247 521.624 144.727L522.321 144.009C521.727 143.433 521.036 142.996 520.253 142.7L519.9 143.636ZM521.63 144.732C522.134 145.208 522.536 145.796 522.831 146.504L523.754 146.12C523.409 145.292 522.931 144.584 522.316 144.004L521.63 144.732ZM522.836 146.516C523.139 147.193 523.297 147.985 523.297 148.904H524.297C524.297 147.871 524.119 146.935 523.749 146.108L522.836 146.516ZM523.297 148.904V149.192H524.297V148.904H523.297ZM517.821 154.06C518.453 154.06 519.045 153.954 519.59 153.736L519.219 152.808C518.804 152.974 518.34 153.06 517.821 153.06V154.06ZM519.598 153.733C520.156 153.499 520.646 153.164 521.062 152.73L520.34 152.038C520.02 152.372 519.645 152.629 519.211 152.811L519.598 153.733ZM521.062 152.73C521.477 152.296 521.8 151.784 522.03 151.199L521.099 150.833C520.914 151.304 520.66 151.704 520.34 152.038L521.062 152.73ZM522.032 151.195C522.264 150.586 522.377 149.916 522.377 149.192H521.377C521.377 149.812 521.281 150.358 521.098 150.837L522.032 151.195ZM522.377 149.192V148.904H521.377V149.192H522.377ZM522.377 148.904C522.377 148.209 522.264 147.562 522.03 146.969L521.099 147.335C521.282 147.798 521.377 148.319 521.377 148.904H522.377ZM522.032 146.973C521.802 146.373 521.48 145.851 521.062 145.414L520.34 146.106C520.657 146.437 520.911 146.843 521.098 147.331L522.032 146.973ZM521.062 145.414C520.646 144.98 520.156 144.645 519.598 144.411L519.211 145.333C519.645 145.515 520.02 145.772 520.34 146.106L521.062 145.414ZM519.61 144.416C519.048 144.162 518.449 144.036 517.821 144.036V145.036C518.312 145.036 518.769 145.134 519.199 145.328L519.61 144.416ZM517.821 144.036C517.192 144.036 516.593 144.162 516.031 144.416L516.442 145.328C516.872 145.134 517.329 145.036 517.821 145.036V144.036ZM516.043 144.411C515.485 144.645 514.996 144.98 514.58 145.414L515.302 146.106C515.622 145.772 515.996 145.515 516.43 145.333L516.043 144.411ZM514.58 145.414C514.161 145.851 513.839 146.373 513.61 146.973L514.544 147.331C514.73 146.843 514.984 146.437 515.302 146.106L514.58 145.414ZM513.611 146.969C513.378 147.562 513.265 148.209 513.265 148.904H514.265C514.265 148.319 514.36 147.798 514.542 147.335L513.611 146.969ZM513.265 148.904V149.192H514.265V148.904H513.265ZM513.265 149.192C513.265 149.916 513.377 150.586 513.61 151.195L514.544 150.837C514.36 150.358 514.265 149.812 514.265 149.192H513.265ZM513.611 151.199C513.842 151.784 514.164 152.296 514.58 152.73L515.302 152.038C514.981 151.704 514.728 151.304 514.542 150.833L513.611 151.199ZM514.58 152.73C514.993 153.161 515.472 153.496 516.014 153.731L516.411 152.813C515.993 152.632 515.624 152.375 515.302 152.038L514.58 152.73ZM516.032 153.738C516.59 153.954 517.188 154.06 517.821 154.06V153.06C517.301 153.06 516.827 152.974 516.393 152.806L516.032 153.738ZM530.452 147.488L530.184 147.91L530.191 147.914L530.452 147.488ZM533.14 148.088L533.18 147.59L533.177 147.589L533.14 148.088ZM536.308 149.096L536.001 149.491L536.011 149.498L536.308 149.096ZM537.052 153.2L536.608 152.97L536.605 152.976L537.052 153.2ZM536.092 154.352L535.787 153.956L535.78 153.962L536.092 154.352ZM534.604 155.072L534.473 154.589L534.466 154.591L534.458 154.594L534.604 155.072ZM530.308 154.976L530.126 155.442L530.133 155.444L530.14 155.447L530.308 154.976ZM528.652 153.992L528.305 154.352L528.312 154.359L528.319 154.365L528.652 153.992ZM527.668 152.6L527.208 152.795L527.21 152.8L527.668 152.6ZM527.284 151.016L527.166 150.53L526.76 150.629L526.785 151.046L527.284 151.016ZM529.06 150.584L529.558 150.54L529.507 149.961L528.942 150.098L529.06 150.584ZM530.116 152.792L529.782 153.164L529.787 153.169L530.116 152.792ZM534.724 153.104L534.992 153.526L534.996 153.524L534.724 153.104ZM534.748 150.2L534.508 150.639L534.508 150.639L534.748 150.2ZM532.18 149.648L532.145 150.147L532.146 150.147L532.18 149.648ZM529.012 148.688L528.715 149.09L528.715 149.09L529.012 148.688ZM528.268 144.704L528.701 144.954L528.705 144.947L528.268 144.704ZM529.228 143.624L528.943 143.213L528.936 143.218L529.228 143.624ZM530.62 142.976L530.485 142.495L530.485 142.495L530.62 142.976ZM534.292 143.096L534.115 143.564L534.126 143.568L534.292 143.096ZM535.78 143.936L535.449 144.311L535.458 144.319L535.78 143.936ZM536.692 145.112L536.238 145.323L536.241 145.329L536.245 145.336L536.692 145.112ZM537.124 146.456L537.242 146.942L537.683 146.835L537.619 146.385L537.124 146.456ZM535.348 146.888L534.851 146.94L534.91 147.509L535.466 147.374L535.348 146.888ZM534.412 145.088L534.095 145.475L534.101 145.48L534.412 145.088ZM531.34 144.56L531.443 145.049L531.452 145.047L531.461 145.045L531.34 144.56ZM529.948 145.424L530.359 145.709L530.364 145.702L530.368 145.694L529.948 145.424ZM529.232 146.168C529.232 146.912 529.557 147.513 530.184 147.91L530.719 147.066C530.387 146.855 530.232 146.576 530.232 146.168H529.232ZM530.191 147.914C530.798 148.287 531.803 148.49 533.103 148.587L533.177 147.589C531.885 147.494 531.098 147.297 530.713 147.062L530.191 147.914ZM533.1 148.586C534.443 148.694 535.389 149.014 536.001 149.491L536.615 148.701C535.787 148.058 534.621 147.706 533.18 147.59L533.1 148.586ZM536.011 149.498C536.598 149.932 536.912 150.571 536.912 151.496H537.912C537.912 150.309 537.489 149.348 536.605 148.694L536.011 149.498ZM536.912 151.496V151.64H537.912V151.496H536.912ZM536.912 151.64C536.912 152.144 536.807 152.584 536.608 152.97L537.496 153.43C537.776 152.888 537.912 152.288 537.912 151.64H536.912ZM536.605 152.976C536.416 153.354 536.146 153.679 535.787 153.956L536.397 154.748C536.87 154.385 537.24 153.942 537.499 153.424L536.605 152.976ZM535.78 153.962C535.443 154.231 535.012 154.444 534.473 154.589L534.734 155.555C535.38 155.38 535.941 155.113 536.404 154.742L535.78 153.962ZM534.458 154.594C533.935 154.753 533.353 154.836 532.708 154.836V155.836C533.438 155.836 534.12 155.743 534.75 155.55L534.458 154.594ZM532.708 154.836C531.821 154.836 531.081 154.721 530.476 154.505L530.14 155.447C530.879 155.711 531.739 155.836 532.708 155.836V154.836ZM530.49 154.51C529.88 154.272 529.381 153.973 528.985 153.619L528.319 154.365C528.818 154.811 529.424 155.168 530.126 155.442L530.49 154.51ZM528.999 153.632C528.61 153.258 528.322 152.847 528.126 152.4L527.21 152.8C527.462 153.377 527.829 153.894 528.305 154.352L528.999 153.632ZM528.128 152.405C527.925 151.925 527.811 151.452 527.783 150.986L526.785 151.046C526.821 151.636 526.963 152.219 527.208 152.795L528.128 152.405ZM527.402 151.502L529.178 151.07L528.942 150.098L527.166 150.53L527.402 151.502ZM528.562 150.628C528.652 151.653 529.054 152.511 529.782 153.164L530.45 152.42C529.929 151.953 529.628 151.339 529.558 150.54L528.562 150.628ZM529.787 153.169C530.524 153.811 531.483 154.108 532.612 154.108V153.108C531.661 153.108 530.956 152.861 530.444 152.415L529.787 153.169ZM532.612 154.108C533.55 154.108 534.358 153.93 534.992 153.526L534.455 152.682C534.034 152.95 533.434 153.108 532.612 153.108V154.108ZM534.996 153.524C535.675 153.084 536.04 152.441 536.04 151.64H535.04C535.04 152.087 534.86 152.42 534.452 152.684L534.996 153.524ZM536.04 151.64C536.04 150.811 535.698 150.149 534.987 149.761L534.508 150.639C534.854 150.827 535.04 151.125 535.04 151.64H536.04ZM534.987 149.761C534.36 149.419 533.413 149.23 532.214 149.149L532.146 150.147C533.315 150.226 534.08 150.405 534.508 150.639L534.987 149.761ZM532.215 149.149C530.889 149.057 529.939 148.752 529.309 148.286L528.715 149.09C529.557 149.712 530.719 150.047 532.145 150.147L532.215 149.149ZM529.309 148.286C528.719 147.85 528.408 147.218 528.408 146.312H527.408C527.408 147.486 527.832 148.438 528.715 149.09L529.309 148.286ZM528.408 146.312V146.168H527.408V146.312H528.408ZM528.408 146.168C528.408 145.681 528.512 145.282 528.701 144.954L527.835 144.454C527.544 144.958 527.408 145.535 527.408 146.168H528.408ZM528.705 144.947C528.909 144.579 529.18 144.275 529.52 144.03L528.936 143.218C528.476 143.549 528.106 143.965 527.831 144.461L528.705 144.947ZM529.512 144.035C529.881 143.78 530.294 143.587 530.755 143.457L530.485 142.495C529.922 142.653 529.407 142.892 528.943 143.213L529.512 144.035ZM530.755 143.457C531.221 143.326 531.711 143.26 532.228 143.26V142.26C531.625 142.26 531.043 142.338 530.485 142.495L530.755 143.457ZM532.228 143.26C532.965 143.26 533.591 143.365 534.115 143.564L534.469 142.628C533.809 142.379 533.058 142.26 532.228 142.26V143.26ZM534.126 143.568C534.668 143.758 535.105 144.009 535.45 144.311L536.11 143.561C535.654 143.159 535.1 142.85 534.458 142.624L534.126 143.568ZM535.458 144.319C535.806 144.611 536.063 144.945 536.238 145.323L537.145 144.901C536.905 144.383 536.554 143.933 536.101 143.553L535.458 144.319ZM536.245 145.336C536.447 145.741 536.573 146.137 536.629 146.527L537.619 146.385C537.546 145.879 537.385 145.379 537.139 144.888L536.245 145.336ZM537.006 145.97L535.23 146.402L535.466 147.374L537.242 146.942L537.006 145.97ZM535.845 146.836C535.753 145.951 535.384 145.222 534.723 144.696L534.101 145.48C534.527 145.818 534.783 146.289 534.851 146.94L535.845 146.836ZM534.728 144.701C534.09 144.178 533.272 143.94 532.324 143.94V144.94C533.104 144.94 533.678 145.134 534.095 145.475L534.728 144.701ZM532.324 143.94C531.948 143.94 531.579 143.985 531.219 144.075L531.461 145.045C531.741 144.975 532.028 144.94 532.324 144.94V143.94ZM531.237 144.071C530.884 144.145 530.559 144.268 530.267 144.443L530.781 145.301C530.968 145.188 531.187 145.103 531.443 145.049L531.237 144.071ZM530.267 144.443C529.964 144.625 529.715 144.862 529.527 145.154L530.368 145.694C530.469 145.538 530.604 145.407 530.781 145.301L530.267 144.443ZM529.537 145.139C529.327 145.442 529.232 145.793 529.232 146.168H530.232C530.232 145.967 530.281 145.822 530.359 145.709L529.537 145.139Z" fill="white"/>
<path d="M23.612 75.16C23.692 76.92 24.092 78.56 24.812 80.08C25.612 81.52 26.652 82.8 27.932 83.92C29.292 84.96 30.812 85.8 32.492 86.44C34.252 87 36.092 87.28 38.012 87.28C41.772 87.28 44.652 86.64 46.652 85.36C48.652 84 50.092 82.4 50.972 80.56L63.932 87.76C63.212 89.28 62.212 90.88 60.932 92.56C59.652 94.16 57.972 95.64 55.892 97C53.892 98.36 51.412 99.48 48.452 100.36C45.572 101.24 42.172 101.68 38.252 101.68C33.772 101.68 29.692 100.96 26.012 99.52C22.332 98.08 19.132 96 16.412 93.28C13.772 90.56 11.692 87.24 10.172 83.32C8.73204 79.4 8.01204 74.96 8.01204 70V69.28C8.01204 64.72 8.77204 60.56 10.292 56.8C11.892 53.04 14.052 49.84 16.772 47.2C19.492 44.56 22.652 42.52 26.252 41.08C29.932 39.56 33.852 38.8 38.012 38.8C43.132 38.8 47.532 39.72 51.212 41.56C54.892 43.32 57.932 45.6 60.332 48.4C62.732 51.12 64.492 54.16 65.612 57.52C66.732 60.8 67.292 64 67.292 67.12V75.16H23.612ZM37.892 52.48C34.052 52.48 30.932 53.48 28.532 55.48C26.132 57.4 24.572 59.64 23.852 62.2H51.932C51.452 59.4 49.932 57.08 47.372 55.24C44.892 53.4 41.732 52.48 37.892 52.48ZM79.2086 60.16H116.649V73.84H79.2086V60.16ZM149.805 57.28C149.805 59.2 150.805 60.6 152.805 61.48C154.805 62.28 158.445 62.96 163.725 63.52C169.805 64.16 174.765 66 178.605 69.04C182.445 72 184.365 76.16 184.365 81.52V82.24C184.365 88.16 182.205 92.88 177.885 96.4C173.565 99.92 167.485 101.68 159.645 101.68C155.005 101.68 151.045 101.08 147.765 99.88C144.485 98.68 141.765 97.2 139.605 95.44C137.445 93.6 135.765 91.6 134.565 89.44C133.445 87.2 132.685 85.04 132.285 82.96L146.205 78.4C146.845 80.96 148.165 83.2 150.165 85.12C152.245 87.04 155.405 88 159.645 88C163.405 88 165.965 87.44 167.325 86.32C168.765 85.12 169.485 83.84 169.485 82.48C169.485 81.68 169.285 80.96 168.885 80.32C168.565 79.6 167.925 78.96 166.965 78.4C166.005 77.76 164.685 77.24 163.005 76.84C161.405 76.44 159.365 76.12 156.885 75.88C150.165 75.32 144.805 73.6 140.805 70.72C136.885 67.76 134.925 63.44 134.925 57.76V57.04C134.925 54.08 135.565 51.48 136.845 49.24C138.125 47 139.805 45.12 141.885 43.6C143.965 42 146.365 40.8 149.085 40C151.805 39.2 154.605 38.8 157.485 38.8C161.245 38.8 164.485 39.28 167.205 40.24C170.005 41.12 172.365 42.32 174.285 43.84C176.205 45.28 177.765 46.92 178.965 48.76C180.165 50.52 181.085 52.24 181.725 53.92L168.045 59.44C167.325 57.28 166.085 55.6 164.325 54.4C162.565 53.12 160.285 52.48 157.485 52.48C154.925 52.48 153.005 52.96 151.725 53.92C150.445 54.8 149.805 55.92 149.805 57.28ZM231.442 40.48H246.562V100H231.442V91.36H229.282C226.642 98.24 220.962 101.68 212.242 101.68C209.282 101.68 206.522 101.2 203.962 100.24C201.402 99.28 199.162 97.8 197.242 95.8C195.322 93.8 193.802 91.32 192.682 88.36C191.642 85.32 191.122 81.76 191.122 77.68V40.48H206.242V74.56C206.242 78.8 207.242 82.12 209.242 84.52C211.242 86.84 214.242 88 218.242 88C222.802 88 226.122 86.56 228.202 83.68C230.362 80.72 231.442 76.72 231.442 71.68V40.48ZM252.478 85.6H272.638V54.88H253.918V40.48H287.758V85.6H305.038V100H252.478V85.6ZM291.478 22.84C291.478 24.44 291.158 25.96 290.518 27.4C289.958 28.76 289.158 29.96 288.118 31C287.078 31.96 285.838 32.76 284.398 33.4C283.038 33.96 281.598 34.24 280.078 34.24C278.478 34.24 276.998 33.96 275.638 33.4C274.278 32.76 273.078 31.96 272.038 31C270.998 29.96 270.158 28.76 269.518 27.4C268.958 25.96 268.678 24.44 268.678 22.84C268.678 21.24 268.958 19.76 269.518 18.4C270.158 16.96 270.998 15.76 272.038 14.8C273.078 13.76 274.278 12.96 275.638 12.4C276.998 11.76 278.478 11.44 280.078 11.44C281.598 11.44 283.038 11.76 284.398 12.4C285.838 12.96 287.078 13.76 288.118 14.8C289.158 15.76 289.958 16.96 290.518 18.4C291.158 19.76 291.478 21.24 291.478 22.84ZM309.995 40.48H327.635V16H342.755V40.48H364.235V54.88H342.755V82C342.755 84.4 343.835 85.6 345.995 85.6H362.075V100H336.875C334.155 100 331.915 99.12 330.155 97.36C328.475 95.6 327.635 93.36 327.635 90.64V54.88H309.995V40.48ZM385.271 75.16C385.351 76.92 385.751 78.56 386.471 80.08C387.271 81.52 388.311 82.8 389.591 83.92C390.951 84.96 392.471 85.8 394.151 86.44C395.911 87 397.751 87.28 399.671 87.28C403.431 87.28 406.311 86.64 408.311 85.36C410.311 84 411.751 82.4 412.631 80.56L425.591 87.76C424.871 89.28 423.871 90.88 422.591 92.56C421.311 94.16 419.631 95.64 417.551 97C415.551 98.36 413.071 99.48 410.111 100.36C407.231 101.24 403.831 101.68 399.911 101.68C395.431 101.68 391.351 100.96 387.671 99.52C383.991 98.08 380.791 96 378.071 93.28C375.431 90.56 373.351 87.24 371.831 83.32C370.391 79.4 369.671 74.96 369.671 70V69.28C369.671 64.72 370.431 60.56 371.951 56.8C373.551 53.04 375.711 49.84 378.431 47.2C381.151 44.56 384.311 42.52 387.911 41.08C391.591 39.56 395.511 38.8 399.671 38.8C404.791 38.8 409.191 39.72 412.871 41.56C416.551 43.32 419.591 45.6 421.991 48.4C424.391 51.12 426.151 54.16 427.271 57.52C428.391 60.8 428.951 64 428.951 67.12V75.16H385.271ZM399.551 52.48C395.711 52.48 392.591 53.48 390.191 55.48C387.791 57.4 386.231 59.64 385.511 62.2H413.591C413.111 59.4 411.591 57.08 409.031 55.24C406.551 53.4 403.391 52.48 399.551 52.48Z" fill="#FF3F61"/>
</svg>
